<svg id="Layer_1" data-name="Layer 1" xmlns="http://www.w3.org/2000/svg" viewBox="0 0 178.02 115.08">
  <path d="M27.67,51.58V27.67c9.95-1.7,18.82,.39,26.69,6.63,13.3,10.54,16.37,30.88,6.55,44.71-5.99,8.44-14.21,13.16-24.68,14.1-16.86,1.51-32.91-9.24-35.64-27.85-.31-2.13-.53-4.3-.54-6.45C0,44.97-.03,31.14,.05,17.32c.03-4.93,2.02-8.93,6.63-11.15,4.53-2.18,8.92-1.65,12.89,1.42,3.19,2.48,4.38,5.99,4.39,9.89,.05,14.16,.02,28.32,.04,42.48,0,5.39,3.41,9.55,8.14,10.04,5.1,.53,9.99-2.97,11.13-7.96,1.17-5.12-3.53-10.8-9.25-10.99-2.04-.07-4.09,.32-6.35,.52Z" fill='#4AA7CA'/>
  <path d="M139.12,92.47v-24.51c3.75,1.46,7.28,1.37,10.68-.57,3.95-2.25,5.84-6.83,4.42-10.87-1.56-4.43-6.36-7.17-11.42-6.51-3.84,.5-7.29,4.36-7.35,8.58-.19,14.82-.31,29.64-.39,44.46-.03,4.91-2.19,8.48-6.49,10.66-4.32,2.18-8.55,1.74-12.44-1.14-2.9-2.15-4.61-5.09-4.63-8.71-.07-15.25-.46-30.51,.11-45.73,.63-16.74,11.9-28.88,28.46-31.21,15.56-2.19,30.65,6.78,35.84,20.98,7.37,20.16-5.52,41.45-25.8,44.5-3.49,.53-7.13,.07-11,.07Z" fill='#4AA7CA'/>
  <path d="M77.32,28.58h23.57c.04,.88,.11,1.68,.11,2.47,0,16.23,.03,32.46-.02,48.68-.02,4.88-2.24,8.68-6.57,10.96-4.08,2.14-8.21,1.81-12.04-.77-3.41-2.3-5.24-5.68-5.26-9.7-.11-16.89-.04-33.79-.02-50.68,0-.23,.12-.47,.25-.97Z" fill='#4AA7CA'/>
  <path d="M89.05,22.56c-6.8,0-11.94-4.76-11.94-11.06C77.11,5.32,82.69,0,89.15,0c6.49,0,11.83,5.13,11.84,11.35,.01,6.72-4.78,11.21-11.94,11.21Z" fill='#4AA7CA'/>
</svg>