<svg width="41" height="27" viewBox="0 0 41 27" fill="none" xmlns="http://www.w3.org/2000/svg">
<path fill-rule="evenodd" clip-rule="evenodd" d="M2.64438 0C1.18393 0 0 1.13751 0 2.54069V13.1874L0.0009817 13.1866C0.0678011 17.2739 3.53718 20.5675 7.80721 20.5675C12.119 20.5675 15.6144 17.2091 15.6144 13.0664C15.6144 8.92367 12.119 5.56532 7.80721 5.56532C6.926 5.56532 6.07889 5.70559 5.28875 5.96416V2.54069C5.28875 1.13751 4.10483 0 2.64438 0ZM10.3257 13.0664C10.3257 14.4028 9.19811 15.4861 7.80721 15.4861C6.4163 15.4861 5.28875 14.4028 5.28875 13.0664C5.28875 11.73 6.4163 10.6467 7.80721 10.6467C9.19811 10.6467 10.3257 11.73 10.3257 13.0664Z" fill="#3968D4"/>
<path fill-rule="evenodd" clip-rule="evenodd" d="M29.7178 20.1687C30.5079 20.4272 31.355 20.5675 32.2362 20.5675C36.548 20.5675 40.0434 17.2091 40.0434 13.0664C40.0434 8.92367 36.548 5.56532 32.2362 5.56532C27.9661 5.56532 24.4966 8.85911 24.43 12.9466L24.429 12.9454V23.5921C24.429 24.9953 25.6129 26.1328 27.0734 26.1328C28.5338 26.1328 29.7178 24.9953 29.7178 23.5921V20.1687ZM34.7547 13.0664C34.7547 14.4028 33.6271 15.4861 32.2362 15.4861C30.8453 15.4861 29.7178 14.4028 29.7178 13.0664C29.7178 11.73 30.8453 10.6467 32.2362 10.6467C33.6271 10.6467 34.7547 11.73 34.7547 13.0664Z" fill="#3968D4"/>
<path d="M20.0217 4.59744C21.3431 4.59744 22.4142 3.56827 22.4142 2.29872C22.4142 1.02917 21.3431 0 20.0217 0C18.7004 0 17.6292 1.02917 17.6292 2.29872C17.6292 3.56827 18.7004 4.59744 20.0217 4.59744Z" fill="#3968D4"/>
<path d="M17.6292 7.86404C17.6292 6.59449 18.7004 5.56532 20.0217 5.56532C21.3431 5.56532 22.4142 6.59449 22.4142 7.86404V18.2688C22.4142 19.5383 21.3431 20.5675 20.0217 20.5675C18.7004 20.5675 17.6292 19.5383 17.6292 18.2688V7.86404Z" fill="#3968D4"/>
</svg>
