<svg width="74" height="75" viewBox="0 0 74 75" fill="none" xmlns="http://www.w3.org/2000/svg">
<path d="M6 37.5C6 20.3792 19.8792 6.5 37 6.5C54.1208 6.5 68 20.3792 68 37.5C68 54.6208 54.1208 68.5 37 68.5C19.8792 68.5 6 54.6208 6 37.5Z" fill="#4AA7CA"/>
<path d="M30 36.3C29.3373 36.3 28.8 36.8373 28.8 37.5C28.8 38.1627 29.3373 38.7 30 38.7V36.3ZM44 37.5L44.8485 38.3485C45.3172 37.8799 45.3172 37.1201 44.8485 36.6515L44 37.5ZM37.8485 29.6515C37.3799 29.1828 36.6201 29.1828 36.1515 29.6515C35.6828 30.1201 35.6828 30.8799 36.1515 31.3485L37.8485 29.6515ZM36.1515 43.6515C35.6828 44.1201 35.6828 44.8799 36.1515 45.3485C36.6201 45.8172 37.3799 45.8172 37.8485 45.3485L36.1515 43.6515ZM30 38.7H44V36.3H30V38.7ZM36.1515 31.3485L43.1515 38.3485L44.8485 36.6515L37.8485 29.6515L36.1515 31.3485ZM43.1515 36.6515L36.1515 43.6515L37.8485 45.3485L44.8485 38.3485L43.1515 36.6515Z" fill="white"/>
<path d="M37 62.5C23.1929 62.5 12 51.3071 12 37.5H0C0 57.9345 16.5655 74.5 37 74.5V62.5ZM62 37.5C62 51.3071 50.8071 62.5 37 62.5V74.5C57.4345 74.5 74 57.9345 74 37.5H62ZM37 12.5C50.8071 12.5 62 23.6929 62 37.5H74C74 17.0655 57.4345 0.5 37 0.5V12.5ZM37 0.5C16.5655 0.5 0 17.0655 0 37.5H12C12 23.6929 23.1929 12.5 37 12.5V0.5Z" fill="#4AA7CA" fill-opacity="0.2"/>
</svg>
