<?xml version="1.0" encoding="UTF-8"?>
<svg id="Layer_2" data-name="Layer 2" xmlns="http://www.w3.org/2000/svg" viewBox="0 0 209.22 210.05">
  <defs>
    <style>
      .cls-1 {
        fill: #fff;
      }

      .cls-2 {
        fill: #dea81d;
      }

      .cls-3 {
        fill: brown;
      }

      .cls-4 {
        fill: #3b87a3;
      }

      .cls-5 {
        fill: #4aa7ca;
      }
    </style>
  </defs>
  <g id="License_Options_Illustration" data-name="License  Options  Illustration">
    <path class="cls-5" d="M73.83,0c-9.55,0-17.23,7.68-17.23,17.23V182.65c0,9.55,7.68,17.23,17.23,17.23h118.15c9.55,0,17.23-7.69,17.23-17.23V57.11L152.11,0H73.83Z"/>
    <path d="M164.91,54.65l44.31,11.87v-9.41c-21.01-1.17-44.43-2.46-44.31-2.46Z"/>
    <path class="cls-4" d="M209.22,57.11L152.11,0V39.88c0,9.55,7.69,17.23,17.23,17.23h39.88Z"/>
    <path class="cls-1" d="M91.81,82.56c-.65,0-1.18,.53-1.18,1.18,0,.5,.39,1.18,1.18,1.18h101.69c.65,0,1.18-.53,1.18-1.18,.11,0-.14-1.18-1.18-1.18H91.81Z"/>
    <path class="cls-1" d="M76.19,44.16c-.65,0-1.18,.53-1.18,1.18h0c0,.51,.4,1.18,1.18,1.18h48.1c.65,0,1.18-.53,1.18-1.18,0-.51-.4-1.18-1.18-1.18,.12,0-44.02,0-48.1,0Z"/>
    <path class="cls-1" d="M91.81,105.77c-.65,0-1.18,.53-1.18,1.18h0c0,.51,.4,1.18,1.18,1.18h101.69c.65,0,1.18-.53,1.18-1.18,0-.51-.4-1.18-1.18-1.18,3.97,0-97.76,0-101.69,0Z"/>
    <path class="cls-1" d="M91.81,128.98c-.65,0-1.18,.53-1.18,1.18,0,.5,.39,1.18,1.18,1.18h101.69c.65,0,1.18-.53,1.18-1.18,0-.51-.39-1.18-1.18-1.18H91.81Z"/>
    <path class="cls-1" d="M91.81,152.19c-.65,0-1.18,.53-1.18,1.18h0c0,.51,.4,1.18,1.18,1.18h101.69c.65,0,1.18-.53,1.18-1.18,0-.51-.4-1.18-1.18-1.18,3.97,0-97.76,0-101.69,0Z"/>
    <path class="cls-3" d="M.84,186.41c-1.96,3.4-.38,6.99,3.54,8.04l14.85,1.66,8.86,12.03c2.88,2.87,6.77,2.45,8.73-.95l32.45-56.2c1.96-3.4-34.03-24.18-35.99-20.78,.17,0-32.51,56.31-32.45,56.2Z"/>
    <path class="cls-3" d="M125.48,186.41c1.96,3.4,.38,6.99-3.54,8.04l-14.85,1.66-8.86,12.03c-2.88,2.87-6.77,2.45-8.73-.95l-32.45-56.2c-1.96-3.4,34.03-24.18,35.99-20.78,.1,0,32.51,56.31,32.45,56.2Z"/>
    <path d="M93.04,130.21l10.17,17.61c-1.58,5.71-1.2,13.84-5.09,17.72-4.32,4.32-13.91,3.36-19.56,5.7-2.32,.96-4.72,2.79-7.17,4.61l-14.35-24.86c-1.81-3.14,28.64-21.04,34.94-21.15h0c.63,0,.92,.15,1.05,.37Z"/>
    <path d="M33.29,130.21l-10.17,17.61c1.58,5.71,1.2,13.84,5.09,17.72,4.32,4.32,13.91,3.36,19.56,5.7,2.32,.96,4.72,2.79,7.17,4.61l14.35-24.86c1.81-3.14-28.64-21.04-34.94-21.15h0c.1,0-.79-.08-1.05,.37Z"/>
    <path class="cls-2" d="M100.83,157.49c-4.32,4.32-13.91,3.36-19.56,5.7-5.65,2.34-11.75,9.8-17.86,9.8s-12.21-7.46-17.86-9.8c-5.65-2.34-15.24-1.38-19.56-5.7-4.32-4.32-3.36-13.91-5.7-19.56-2.34-5.65-9.8-11.75-9.8-17.86s7.46-12.21,9.8-17.86c2.34-5.65,1.38-15.24,5.7-19.56,4.32-4.32,13.91-3.36,19.56-5.7,5.65-2.34,11.75-9.8,17.86-9.8s12.21,7.46,17.86,9.8c5.65,2.34,15.24,1.38,19.56,5.7,4.32,4.32,3.36,13.91,5.7,19.56,2.34,5.65,9.8,11.75,9.8,17.86s-7.46,12.21-9.8,17.86c-2.34,5.65-1.38,15.23-5.7,19.56h0Z"/>
    <path class="cls-1" d="M78.95,103.92c-1.42,0-2.79,.56-3.8,1.57l-19.4,19.4-10.6-7.17c-2.38-1.39-3.98-1.49-4.99-.49-1.01,1.01-1.23,2.69,.4,5.07l11.39,13.97c2.09,2.09,5.49,2.09,7.58,0l23.19-23.19c3.39-3.39,.94-9.16-3.79-9.16Z"/>
    <path d="M67.24,113.4l-11.49,11.49,3.74,2.16c8.28-14.58,7.65-13.64,7.75-13.64Z"/>
    <path d="M98.17,120.07c0,19.21-15.55,34.76-34.77,34.76s-34.76-15.55-34.76-34.76,15.55-34.76,34.76-34.76,34.77,15.49,34.77,34.76Zm-34.77-37.13c-20.49,0-37.13,16.64-37.13,37.13s16.63,37.13,37.13,37.13,37.11-16.85,37.11-36.91c0-21.08-16.93-37.33-37.11-37.33h0Z"/>
    <path class="cls-1" d="M76.19,22.22c-.65,0-1.18,.53-1.18,1.18h0c0,.51,.4,1.18,1.18,1.18h21.52c.65,0,1.18-.53,1.18-1.18,0-.51-.39-1.18-1.18-1.18h-21.52Z"/>
    <path class="cls-1" d="M171.56,176.24c-.65,0-1.18,.53-1.18,1.18h0c0,.5,.39,1.18,1.18,1.18h21.94c.65,0,1.18-.53,1.18-1.18,0-.51-.4-1.18-1.18-1.18,.1,0-15.32,0-21.94,0Z"/>
  </g>
</svg>