<svg width="1280" height="265" viewBox="0 0 1280 265" fill="none" xmlns="http://www.w3.org/2000/svg">
    <path d="M-3.99999 192.167C143.192 168.819 244.275 230.165 275 265L-4 265L-3.99999 192.167Z" fill="url(#paint0_linear_877_8620)"/>
    <path d="M198.175 132.646L198.163 132.641L198.151 132.636C113.627 98.8334 29.0177 107.589 -4 113.647L-4 99.4816C91.2227 83.8998 173.413 105.095 204.971 118.846L204.987 118.852L205.003 118.859C207.218 119.735 209.62 121.331 211.206 123.414C212.764 125.461 213.511 127.933 212.612 130.722C211.921 132.401 211.034 133.445 210.065 134.08C209.087 134.72 207.943 134.997 206.658 135C204.033 135.005 201.022 133.872 198.175 132.646Z" fill="white" stroke="#E7F7FF" stroke-width="2"/>
    <path d="M38.7283 122.007L38.7188 122.008C36.2848 122.19 33.4494 122.015 31.0895 120.896C28.7918 119.807 26.8714 117.794 26.2208 114.081C25.4434 109.645 26.8147 106.879 28.7946 105.117C30.8324 103.304 33.6242 102.465 35.7732 102.184C66.0646 99.5093 145.884 98.0806 222.946 136.043L222.962 136.051L222.978 136.058C235.949 141.889 264.314 155.869 281.178 168.953L281.189 168.962L281.201 168.971C282.827 170.156 285.079 172.184 286.24 174.776C286.814 176.057 287.116 177.462 286.959 178.978C286.802 180.493 286.181 182.181 284.813 184.018C283.074 186.352 281.319 187.668 279.674 188.352C278.03 189.036 276.43 189.117 274.953 188.879C272.182 188.432 269.906 186.881 268.717 186.072C268.618 186.004 268.526 185.942 268.443 185.885C268.388 185.849 268.271 185.766 268.091 185.639C261.312 180.858 166.074 113.681 38.7283 122.007Z" fill="white" stroke="#D4FAF6" stroke-width="2"/>
    <path d="M-4 145.511C14.696 142.778 60.8507 139.15 102.843 145.637C129.633 149.775 148.304 152.857 159.991 157.787C165.811 160.242 169.779 163.11 172.161 166.69C174.532 170.251 175.418 174.645 174.819 180.335C174.223 185.997 172.279 189.863 169.716 192.497C167.144 195.139 163.876 196.614 160.515 197.358C157.151 198.104 153.733 198.107 150.929 197.834C148.108 197.56 145.986 197.014 145.222 196.715C144.696 196.509 143.062 196.079 140.571 195.519C138.04 194.949 134.544 194.229 130.228 193.447C121.596 191.883 109.673 190.072 95.615 188.736C67.8165 186.093 31.6255 185.301 -4 191.965L-4 145.511Z" fill="white" stroke="#E7F7FF" stroke-width="2"/>
    <path d="M101.518 173.118L101.538 173.12L101.559 173.121C160.429 177.367 211.617 197.359 245.011 219.621L245.047 219.646L245.086 219.667C251.987 223.433 254.835 228.102 255.695 232.325C256.565 236.597 255.427 240.543 254.128 242.839L254.124 242.846L254.12 242.853C252.318 246.155 250.107 248.235 247.739 249.466C245.366 250.7 242.774 251.112 240.168 250.975C234.924 250.7 229.741 248.207 226.579 245.972L226.533 245.94L226.485 245.913C190.426 225.996 162.305 216.283 140.856 211.248C124.828 207.486 112.495 206.336 103.469 205.494C100.435 205.211 97.7738 204.963 95.4721 204.662C88.3586 203.733 84.6096 200.479 82.7248 196.901C80.8076 193.26 80.7524 189.152 81.2997 186.498L81.3021 186.486C82.4912 180.342 86.0665 176.869 90.0742 174.982C94.1275 173.072 98.6318 172.788 101.518 173.118Z" fill="white" stroke="#E7F7FF" stroke-width="2"/>
    <path d="M520.07 193.823L520.07 193.822C520.391 193.624 522.724 192.247 525.419 192.242C526.737 192.24 528.125 192.566 529.427 193.514C530.735 194.466 532.033 196.102 533.064 198.851C535.064 204.186 533.243 208.281 530.745 211.178C528.215 214.112 525.039 215.74 524.614 215.949L525.056 216.846L524.614 215.949C524.586 215.963 524.558 215.977 524.531 215.991C524.505 216.005 524.479 216.019 524.452 216.034C430.097 268.722 346.847 247.479 292.181 202.22C291.872 201.964 291.739 201.534 291.872 201.005C292.009 200.465 292.392 199.992 292.875 199.794C298.567 197.454 302.593 192.213 303.874 186.619C303.999 186.069 304.555 185.456 305.343 185.12C306.142 184.78 306.779 184.879 307.101 185.169C346.156 220.331 390.653 228.92 429.733 225.511C468.78 222.105 502.471 206.718 520.047 193.839C520.058 193.831 520.063 193.828 520.065 193.826L520.07 193.823Z" fill="white" stroke="#E7F7FF" stroke-width="2"/>
    <path d="M1282.92 192.167C1135.73 168.819 1034.64 230.165 1003.92 265L1282.92 265L1282.92 192.167Z" fill="url(#paint1_linear_877_8620)"/>
    <path d="M1080.74 132.646L1080.76 132.641L1080.77 132.636C1165.29 98.8334 1249.9 107.589 1282.92 113.647L1282.92 99.4816C1187.7 83.8998 1105.51 105.095 1073.95 118.846L1073.93 118.852L1073.92 118.859C1071.7 119.735 1069.3 121.331 1067.71 123.414C1066.15 125.461 1065.41 127.933 1066.31 130.722C1067 132.401 1067.88 133.445 1068.85 134.08C1069.83 134.72 1070.98 134.997 1072.26 135C1074.89 135.005 1077.9 133.872 1080.74 132.646Z" fill="white" stroke="#E7F7FF" stroke-width="2"/>
    <path d="M1240.19 122.007L1240.2 122.008C1242.63 122.19 1245.47 122.015 1247.83 120.896C1250.13 119.807 1252.05 117.794 1252.7 114.081C1253.48 109.645 1252.1 106.879 1250.12 105.117C1248.09 103.304 1245.29 102.465 1243.15 102.184C1212.85 99.5093 1133.03 98.0806 1055.97 136.043L1055.96 136.051L1055.94 136.058C1042.97 141.889 1014.6 155.869 997.741 168.953L997.729 168.962L997.717 168.971C996.091 170.156 993.839 172.184 992.678 174.776C992.105 176.057 991.803 177.462 991.96 178.978C992.116 180.493 992.738 182.181 994.106 184.018C995.844 186.352 997.599 187.668 999.245 188.352C1000.89 189.036 1002.49 189.117 1003.96 188.879C1006.74 188.432 1009.01 186.881 1010.2 186.072C1010.3 186.004 1010.39 185.942 1010.48 185.885C1010.53 185.849 1010.65 185.766 1010.83 185.639C1017.61 180.858 1112.84 113.681 1240.19 122.007Z" fill="white" stroke="#D4FAF6" stroke-width="2"/>
    <path d="M1282.92 145.511C1264.22 142.778 1218.07 139.15 1176.08 145.637C1149.29 149.775 1130.61 152.857 1118.93 157.787C1113.11 160.242 1109.14 163.11 1106.76 166.69C1104.39 170.251 1103.5 174.645 1104.1 180.335C1104.7 185.997 1106.64 189.863 1109.2 192.497C1111.77 195.139 1115.04 196.614 1118.4 197.358C1121.77 198.104 1125.19 198.107 1127.99 197.834C1130.81 197.56 1132.93 197.014 1133.7 196.715C1134.22 196.509 1135.86 196.079 1138.35 195.519C1140.88 194.949 1144.37 194.229 1148.69 193.447C1157.32 191.883 1169.25 190.072 1183.3 188.736C1211.1 186.093 1247.29 185.301 1282.92 191.965L1282.92 145.511Z" fill="white" stroke="#E7F7FF" stroke-width="2"/>
    <path d="M1177.4 173.118L1177.38 173.12L1177.36 173.121C1118.49 177.367 1067.3 197.359 1033.91 219.621L1033.87 219.646L1033.83 219.667C1026.93 223.433 1024.08 228.102 1023.22 232.325C1022.35 236.597 1023.49 240.543 1024.79 242.839L1024.79 242.846L1024.8 242.853C1026.6 246.155 1028.81 248.235 1031.18 249.466C1033.55 250.7 1036.14 251.112 1038.75 250.975C1043.99 250.7 1049.18 248.207 1052.34 245.972L1052.39 245.94L1052.43 245.913C1088.49 225.996 1116.61 216.283 1138.06 211.248C1154.09 207.486 1166.42 206.336 1175.45 205.494C1178.48 205.211 1181.14 204.963 1183.45 204.662C1190.56 203.733 1194.31 200.479 1196.19 196.901C1198.11 193.26 1198.17 189.152 1197.62 186.498L1197.62 186.486C1196.43 180.342 1192.85 176.869 1188.84 174.982C1184.79 173.072 1180.29 172.788 1177.4 173.118Z" fill="white" stroke="#E7F7FF" stroke-width="2"/>
    <path d="M758.848 193.823L758.848 193.822C758.528 193.624 756.194 192.247 753.5 192.242C752.182 192.24 750.793 192.566 749.491 193.514C748.183 194.466 746.886 196.102 745.855 198.851C743.854 204.186 745.675 208.281 748.173 211.178C750.703 214.112 753.88 215.74 754.305 215.949L753.863 216.846L754.305 215.949C754.333 215.963 754.36 215.977 754.388 215.991C754.413 216.005 754.439 216.019 754.467 216.034C848.822 268.722 932.071 247.479 986.738 202.22C987.047 201.964 987.18 201.534 987.046 201.005C986.91 200.465 986.526 199.992 986.044 199.794C980.352 197.454 976.325 192.213 975.045 186.619C974.919 186.069 974.364 185.456 973.575 185.12C972.777 184.78 972.139 184.879 971.817 185.169C932.763 220.331 888.265 228.92 849.186 225.511C810.138 222.105 776.448 206.718 758.871 193.839C758.86 193.831 758.856 193.828 758.854 193.826L758.848 193.823Z" fill="white" stroke="#E7F7FF" stroke-width="2"/>
    <circle cx="640" cy="97" r="95.25" stroke="#A3DFE0" stroke-width="1.5"/>
    <path d="M641.263 114.154C637.049 114.154 633.622 110.707 633.622 106.441C633.622 102.176 637.049 98.7286 641.263 98.7286C645.477 98.7286 648.904 102.176 648.904 106.441C648.904 110.707 645.477 114.154 641.263 114.154ZM641.263 77.238C638.446 77.238 635.726 77.6495 633.152 78.407V69.6796C633.152 63.8966 628.502 59.1974 622.753 59.1974C617.003 59.1974 612.354 63.8966 612.354 69.6796V104.766C612.323 105.317 612.303 105.875 612.303 106.441C612.303 122.564 625.263 135.645 641.263 135.645C657.264 135.645 670.224 122.564 670.224 106.441C670.224 90.3188 657.264 77.238 641.263 77.238Z" fill="white" stroke="#7CD1D2" stroke-width="1.5"/>
    <path d="M561.268 204.838L561.066 205.75H562H716H716.826L716.747 204.928C715.246 189.404 702.488 177.25 686.938 177.25C680.538 177.25 674.607 179.311 669.741 182.818C663.708 168.939 650.146 159.25 634.365 159.25C617.639 159.25 603.405 170.135 597.987 185.357C594.798 183.999 591.301 183.25 587.635 183.25C574.752 183.25 563.995 192.491 561.268 204.838Z" fill="white"/>
    <path d="M561.268 204.838L561.066 205.75H562H716H716.826L716.747 204.928C715.246 189.404 702.488 177.25 686.938 177.25C680.538 177.25 674.607 179.311 669.741 182.818C663.708 168.939 650.146 159.25 634.365 159.25C617.639 159.25 603.405 170.135 597.987 185.357C594.798 183.999 591.301 183.25 587.635 183.25C574.752 183.25 563.995 192.491 561.268 204.838Z" stroke="white" stroke-opacity="0.2" stroke-width="1.5"/>
    <path d="M561.268 204.838L561.066 205.75H562H716H716.826L716.747 204.928C715.246 189.404 702.488 177.25 686.938 177.25C680.538 177.25 674.607 179.311 669.741 182.818C663.708 168.939 650.146 159.25 634.365 159.25C617.639 159.25 603.405 170.135 597.987 185.357C594.798 183.999 591.301 183.25 587.635 183.25C574.752 183.25 563.995 192.491 561.268 204.838Z" stroke="#DCF3FF" stroke-width="1.5"/>
    <path d="M928.268 60.8374L928.065 61.75H929H1132H1132.83L1132.75 60.9275C1130.78 40.6836 1114.06 24.85 1093.69 24.85C1085.2 24.85 1077.34 27.6031 1070.92 32.2805C1063.06 14.0175 1045.19 1.25 1024.39 1.25C1002.36 1.25 983.626 15.564 976.579 35.5614C972.341 33.7296 967.681 32.7167 962.791 32.7167C945.931 32.7167 931.841 44.7474 928.268 60.8374Z" fill="white"/>
    <path d="M928.268 60.8374L928.065 61.75H929H1132H1132.83L1132.75 60.9275C1130.78 40.6836 1114.06 24.85 1093.69 24.85C1085.2 24.85 1077.34 27.6031 1070.92 32.2805C1063.06 14.0175 1045.19 1.25 1024.39 1.25C1002.36 1.25 983.626 15.564 976.579 35.5614C972.341 33.7296 967.681 32.7167 962.791 32.7167C945.931 32.7167 931.841 44.7474 928.268 60.8374Z" stroke="white" stroke-opacity="0.2" stroke-width="1.5"/>
    <path d="M928.268 60.8374L928.065 61.75H929H1132H1132.83L1132.75 60.9275C1130.78 40.6836 1114.06 24.85 1093.69 24.85C1085.2 24.85 1077.34 27.6031 1070.92 32.2805C1063.06 14.0175 1045.19 1.25 1024.39 1.25C1002.36 1.25 983.626 15.564 976.579 35.5614C972.341 33.7296 967.681 32.7167 962.791 32.7167C945.931 32.7167 931.841 44.7474 928.268 60.8374Z" stroke="#DCF3FF" stroke-width="1.5"/>
    <path d="M1227.27 149.838L1227.07 150.75H1228H1331H1331.83L1331.75 149.928C1330.73 139.455 1322.1 131.25 1311.56 131.25C1307.34 131.25 1303.41 132.573 1300.16 134.833C1296.03 125.644 1286.95 119.25 1276.4 119.25C1265.19 119.25 1255.65 126.461 1251.93 136.574C1249.83 135.72 1247.54 135.25 1245.15 135.25C1236.41 135.25 1229.12 141.497 1227.27 149.838Z" fill="white"/>
    <path d="M1227.27 149.838L1227.07 150.75H1228H1331H1331.83L1331.75 149.928C1330.73 139.455 1322.1 131.25 1311.56 131.25C1307.34 131.25 1303.41 132.573 1300.16 134.833C1296.03 125.644 1286.95 119.25 1276.4 119.25C1265.19 119.25 1255.65 126.461 1251.93 136.574C1249.83 135.72 1247.54 135.25 1245.15 135.25C1236.41 135.25 1229.12 141.497 1227.27 149.838Z" stroke="white" stroke-opacity="0.2" stroke-width="1.5"/>
    <path d="M1227.27 149.838L1227.07 150.75H1228H1331H1331.83L1331.75 149.928C1330.73 139.455 1322.1 131.25 1311.56 131.25C1307.34 131.25 1303.41 132.573 1300.16 134.833C1296.03 125.644 1286.95 119.25 1276.4 119.25C1265.19 119.25 1255.65 126.461 1251.93 136.574C1249.83 135.72 1247.54 135.25 1245.15 135.25C1236.41 135.25 1229.12 141.497 1227.27 149.838Z" stroke="#DCF3FF" stroke-width="1.5"/>
    <path d="M978.268 270.838L978.066 271.75H979H1082H1082.83L1082.75 270.928C1081.73 260.455 1073.1 252.25 1062.56 252.25C1058.34 252.25 1054.41 253.573 1051.16 255.833C1047.03 246.644 1037.95 240.25 1027.4 240.25C1016.19 240.25 1006.65 247.461 1002.93 257.574C1000.83 256.72 998.539 256.25 996.145 256.25C987.408 256.25 980.116 262.497 978.268 270.838Z" fill="white"/>
    <path d="M978.268 270.838L978.066 271.75H979H1082H1082.83L1082.75 270.928C1081.73 260.455 1073.1 252.25 1062.56 252.25C1058.34 252.25 1054.41 253.573 1051.16 255.833C1047.03 246.644 1037.95 240.25 1027.4 240.25C1016.19 240.25 1006.65 247.461 1002.93 257.574C1000.83 256.72 998.539 256.25 996.145 256.25C987.408 256.25 980.116 262.497 978.268 270.838Z" stroke="white" stroke-opacity="0.2" stroke-width="1.5"/>
    <path d="M978.268 270.838L978.066 271.75H979H1082H1082.83L1082.75 270.928C1081.73 260.455 1073.1 252.25 1062.56 252.25C1058.34 252.25 1054.41 253.573 1051.16 255.833C1047.03 246.644 1037.95 240.25 1027.4 240.25C1016.19 240.25 1006.65 247.461 1002.93 257.574C1000.83 256.72 998.539 256.25 996.145 256.25C987.408 256.25 980.116 262.497 978.268 270.838Z" stroke="#DCF3FF" stroke-width="1.5"/>
    <path d="M-86.7322 60.8374L-86.9349 61.75H-86H117H117.826L117.746 60.9275C115.779 40.6836 99.0567 24.85 78.6904 24.85C70.2011 24.85 62.3409 27.6031 55.9206 32.2805C48.063 14.0175 30.1926 1.25 9.39078 1.25C-12.6355 1.25 -31.3744 15.564 -38.4212 35.5614C-42.6592 33.7296 -47.3189 32.7167 -52.2088 32.7167C-69.0685 32.7167 -83.1585 44.7474 -86.7322 60.8374Z" fill="white"/>
    <path d="M-86.7322 60.8374L-86.9349 61.75H-86H117H117.826L117.746 60.9275C115.779 40.6836 99.0567 24.85 78.6904 24.85C70.2011 24.85 62.3409 27.6031 55.9206 32.2805C48.063 14.0175 30.1926 1.25 9.39078 1.25C-12.6355 1.25 -31.3744 15.564 -38.4212 35.5614C-42.6592 33.7296 -47.3189 32.7167 -52.2088 32.7167C-69.0685 32.7167 -83.1585 44.7474 -86.7322 60.8374Z" stroke="white" stroke-opacity="0.2" stroke-width="1.5"/>
    <path d="M-86.7322 60.8374L-86.9349 61.75H-86H117H117.826L117.746 60.9275C115.779 40.6836 99.0567 24.85 78.6904 24.85C70.2011 24.85 62.3409 27.6031 55.9206 32.2805C48.063 14.0175 30.1926 1.25 9.39078 1.25C-12.6355 1.25 -31.3744 15.564 -38.4212 35.5614C-42.6592 33.7296 -47.3189 32.7167 -52.2088 32.7167C-69.0685 32.7167 -83.1585 44.7474 -86.7322 60.8374Z" stroke="#DCF3FF" stroke-width="1.5"/>
    <path d="M-36.7322 270.838L-36.9344 271.75H-36H67H67.8262L67.7465 270.928C66.7309 260.455 58.0955 252.25 47.5621 252.25C43.3363 252.25 39.412 253.573 36.1646 255.833C32.0329 246.644 22.9526 240.25 12.4002 240.25C1.19342 240.25 -8.35248 247.461 -12.075 257.574C-14.1726 256.72 -16.4607 256.25 -18.8547 256.25C-27.5924 256.25 -34.8838 262.497 -36.7322 270.838Z" fill="white"/>
    <path d="M-36.7322 270.838L-36.9344 271.75H-36H67H67.8262L67.7465 270.928C66.7309 260.455 58.0955 252.25 47.5621 252.25C43.3363 252.25 39.412 253.573 36.1646 255.833C32.0329 246.644 22.9526 240.25 12.4002 240.25C1.19342 240.25 -8.35248 247.461 -12.075 257.574C-14.1726 256.72 -16.4607 256.25 -18.8547 256.25C-27.5924 256.25 -34.8838 262.497 -36.7322 270.838Z" stroke="white" stroke-opacity="0.2" stroke-width="1.5"/>
    <path d="M-36.7322 270.838L-36.9344 271.75H-36H67H67.8262L67.7465 270.928C66.7309 260.455 58.0955 252.25 47.5621 252.25C43.3363 252.25 39.412 253.573 36.1646 255.833C32.0329 246.644 22.9526 240.25 12.4002 240.25C1.19342 240.25 -8.35248 247.461 -12.075 257.574C-14.1726 256.72 -16.4607 256.25 -18.8547 256.25C-27.5924 256.25 -34.8838 262.497 -36.7322 270.838Z" stroke="#DCF3FF" stroke-width="1.5"/>
    <path d="M607.154 55.25H515.964C517.805 48.8264 523.616 44.15 530.481 44.15C532.693 44.15 534.794 44.635 536.687 45.5062L537.446 45.8557L537.711 45.0632C540.699 36.1459 548.976 29.75 558.701 29.75C567.916 29.75 575.829 35.4908 579.177 43.6791L579.548 44.5873L580.327 43.9906C583.149 41.829 586.652 40.55 590.449 40.55C598.916 40.55 605.946 46.9215 607.154 55.25Z" fill="white" stroke="#DCF3FF" stroke-width="1.5"/>
    <defs>
        <linearGradient id="paint0_linear_877_8620" x1="-0.853407" y1="205.41" x2="274.908" y2="269.579" gradientUnits="userSpaceOnUse">
            <stop stop-color="#E6F7FF"/>
            <stop offset="1" stop-color="#F3FBFF"/>
        </linearGradient>
        <linearGradient id="paint1_linear_877_8620" x1="1279.77" y1="205.41" x2="1004.01" y2="269.579" gradientUnits="userSpaceOnUse">
            <stop stop-color="#E6F7FF"/>
            <stop offset="1" stop-color="#F3FBFF"/>
        </linearGradient>
    </defs>
</svg>
