<svg width="1280" height="263" viewBox="0 0 1280 263" fill="none" xmlns="http://www.w3.org/2000/svg">
<g clip-path="url(#clip0_2728_70994)">
<path d="M-3.99999 190.167C143.192 166.819 244.275 228.165 275 263L-4 263L-3.99999 190.167Z" fill="url(#paint0_linear_2728_70994)"/>
<path d="M198.175 130.646L198.163 130.641L198.151 130.636C113.627 96.8334 29.0177 105.589 -4 111.647L-4 97.4816C91.2227 81.8998 173.413 103.095 204.971 116.846L204.987 116.852L205.003 116.859C207.218 117.735 209.62 119.331 211.206 121.414C212.764 123.461 213.511 125.933 212.612 128.722C211.921 130.401 211.034 131.445 210.065 132.08C209.087 132.72 207.943 132.997 206.658 133C204.033 133.005 201.022 131.872 198.175 130.646Z" fill="white" stroke="#E7F7FF" stroke-width="2"/>
<path d="M38.7283 120.007L38.7188 120.008C36.2848 120.19 33.4494 120.015 31.0895 118.896C28.7918 117.807 26.8714 115.794 26.2208 112.081C25.4434 107.645 26.8147 104.879 28.7946 103.117C30.8324 101.304 33.6242 100.465 35.7732 100.184C66.0646 97.5093 145.884 96.0806 222.946 134.043L222.962 134.051L222.978 134.058C235.949 139.889 264.314 153.869 281.178 166.953L281.189 166.962L281.201 166.971C282.827 168.156 285.079 170.184 286.24 172.776C286.814 174.057 287.116 175.462 286.959 176.978C286.802 178.493 286.181 180.181 284.813 182.018C283.074 184.352 281.319 185.668 279.674 186.352C278.03 187.036 276.43 187.117 274.953 186.879C272.182 186.432 269.906 184.881 268.717 184.072C268.618 184.004 268.526 183.942 268.443 183.885C268.388 183.849 268.271 183.766 268.091 183.639C261.312 178.858 166.074 111.681 38.7283 120.007Z" fill="white" stroke="#D4FAF6" stroke-width="2"/>
<path d="M-4 143.511C14.696 140.778 60.8507 137.15 102.843 143.637C129.633 147.775 148.304 150.857 159.991 155.787C165.811 158.242 169.779 161.11 172.161 164.69C174.532 168.251 175.418 172.645 174.819 178.335C174.223 183.997 172.279 187.863 169.716 190.497C167.144 193.139 163.876 194.614 160.515 195.358C157.151 196.104 153.733 196.107 150.929 195.834C148.108 195.56 145.986 195.014 145.222 194.715C144.696 194.509 143.062 194.079 140.571 193.519C138.04 192.949 134.544 192.229 130.228 191.447C121.596 189.883 109.673 188.072 95.615 186.736C67.8165 184.093 31.6255 183.301 -4 189.965L-4 143.511Z" fill="white" stroke="#E7F7FF" stroke-width="2"/>
<path d="M101.518 171.118L101.538 171.12L101.559 171.121C160.429 175.367 211.617 195.359 245.011 217.621L245.047 217.646L245.086 217.667C251.987 221.433 254.835 226.102 255.695 230.325C256.565 234.597 255.427 238.543 254.128 240.839L254.124 240.846L254.12 240.853C252.318 244.155 250.107 246.235 247.739 247.466C245.366 248.7 242.774 249.112 240.168 248.975C234.924 248.7 229.741 246.207 226.579 243.972L226.533 243.94L226.485 243.913C190.426 223.996 162.305 214.283 140.856 209.248C124.828 205.486 112.495 204.336 103.469 203.494C100.435 203.211 97.7738 202.963 95.4721 202.662C88.3586 201.733 84.6096 198.479 82.7248 194.901C80.8076 191.26 80.7524 187.152 81.2997 184.498L81.3021 184.486C82.4912 178.342 86.0665 174.869 90.0742 172.982C94.1275 171.072 98.6318 170.788 101.518 171.118Z" fill="white" stroke="#E7F7FF" stroke-width="2"/>
<path d="M1282.92 190.167C1135.73 166.819 1034.64 228.165 1003.92 263L1282.92 263L1282.92 190.167Z" fill="url(#paint1_linear_2728_70994)"/>
<path d="M1080.74 130.646L1080.76 130.641L1080.77 130.636C1165.29 96.8334 1249.9 105.589 1282.92 111.647L1282.92 97.4816C1187.7 81.8998 1105.51 103.095 1073.95 116.846L1073.93 116.852L1073.92 116.859C1071.7 117.735 1069.3 119.331 1067.71 121.414C1066.15 123.461 1065.41 125.933 1066.31 128.722C1067 130.401 1067.88 131.445 1068.85 132.08C1069.83 132.72 1070.98 132.997 1072.26 133C1074.89 133.005 1077.9 131.872 1080.74 130.646Z" fill="white" stroke="#E7F7FF" stroke-width="2"/>
<path d="M1240.19 120.007L1240.2 120.008C1242.63 120.19 1245.47 120.015 1247.83 118.896C1250.13 117.807 1252.05 115.794 1252.7 112.081C1253.48 107.645 1252.1 104.879 1250.12 103.117C1248.09 101.304 1245.29 100.465 1243.15 100.184C1212.85 97.5093 1133.03 96.0806 1055.97 134.043L1055.96 134.051L1055.94 134.058C1042.97 139.889 1014.6 153.869 997.741 166.953L997.729 166.962L997.717 166.971C996.091 168.156 993.839 170.184 992.678 172.776C992.105 174.057 991.803 175.462 991.96 176.978C992.116 178.493 992.738 180.181 994.106 182.018C995.844 184.352 997.599 185.668 999.245 186.352C1000.89 187.036 1002.49 187.117 1003.96 186.879C1006.74 186.432 1009.01 184.881 1010.2 184.072C1010.3 184.004 1010.39 183.942 1010.48 183.885C1010.53 183.849 1010.65 183.766 1010.83 183.639C1017.61 178.858 1112.84 111.681 1240.19 120.007Z" fill="white" stroke="#D4FAF6" stroke-width="2"/>
<path d="M1282.92 143.511C1264.22 140.778 1218.07 137.15 1176.08 143.637C1149.29 147.775 1130.61 150.857 1118.93 155.787C1113.11 158.242 1109.14 161.11 1106.76 164.69C1104.39 168.251 1103.5 172.645 1104.1 178.335C1104.7 183.997 1106.64 187.863 1109.2 190.497C1111.77 193.139 1115.04 194.614 1118.4 195.358C1121.77 196.104 1125.19 196.107 1127.99 195.834C1130.81 195.56 1132.93 195.014 1133.7 194.715C1134.22 194.509 1135.86 194.079 1138.35 193.519C1140.88 192.949 1144.37 192.229 1148.69 191.447C1157.32 189.883 1169.25 188.072 1183.3 186.736C1211.1 184.093 1247.29 183.301 1282.92 189.965L1282.92 143.511Z" fill="white" stroke="#E7F7FF" stroke-width="2"/>
<path d="M1177.4 171.118L1177.38 171.12L1177.36 171.121C1118.49 175.367 1067.3 195.359 1033.91 217.621L1033.87 217.646L1033.83 217.667C1026.93 221.433 1024.08 226.102 1023.22 230.325C1022.35 234.597 1023.49 238.543 1024.79 240.839L1024.79 240.846L1024.8 240.853C1026.6 244.155 1028.81 246.235 1031.18 247.466C1033.55 248.7 1036.14 249.112 1038.75 248.975C1043.99 248.7 1049.18 246.207 1052.34 243.972L1052.39 243.94L1052.43 243.913C1088.49 223.996 1116.61 214.283 1138.06 209.248C1154.09 205.486 1166.42 204.336 1175.45 203.494C1178.48 203.211 1181.14 202.963 1183.45 202.662C1190.56 201.733 1194.31 198.479 1196.19 194.901C1198.11 191.26 1198.17 187.152 1197.62 184.498L1197.62 184.486C1196.43 178.342 1192.85 174.869 1188.84 172.982C1184.79 171.072 1180.29 170.788 1177.4 171.118Z" fill="white" stroke="#E7F7FF" stroke-width="2"/>
<path d="M1051.27 58.8374L1051.07 59.75H1052H1255H1255.83L1255.75 58.9275C1253.78 38.6836 1237.06 22.85 1216.69 22.85C1208.2 22.85 1200.34 25.6031 1193.92 30.2805C1186.06 12.0175 1168.19 -0.75 1147.39 -0.75C1125.36 -0.75 1106.63 13.564 1099.58 33.5614C1095.34 31.7296 1090.68 30.7167 1085.79 30.7167C1068.93 30.7167 1054.84 42.7474 1051.27 58.8374Z" fill="white"/>
<path d="M1051.27 58.8374L1051.07 59.75H1052H1255H1255.83L1255.75 58.9275C1253.78 38.6836 1237.06 22.85 1216.69 22.85C1208.2 22.85 1200.34 25.6031 1193.92 30.2805C1186.06 12.0175 1168.19 -0.75 1147.39 -0.75C1125.36 -0.75 1106.63 13.564 1099.58 33.5614C1095.34 31.7296 1090.68 30.7167 1085.79 30.7167C1068.93 30.7167 1054.84 42.7474 1051.27 58.8374Z" stroke="white" stroke-opacity="0.2" stroke-width="1.5"/>
<path d="M1051.27 58.8374L1051.07 59.75H1052H1255H1255.83L1255.75 58.9275C1253.78 38.6836 1237.06 22.85 1216.69 22.85C1208.2 22.85 1200.34 25.6031 1193.92 30.2805C1186.06 12.0175 1168.19 -0.75 1147.39 -0.75C1125.36 -0.75 1106.63 13.564 1099.58 33.5614C1095.34 31.7296 1090.68 30.7167 1085.79 30.7167C1068.93 30.7167 1054.84 42.7474 1051.27 58.8374Z" stroke="#DCF3FF" stroke-width="1.5"/>
<path d="M1227.27 147.838L1227.07 148.75H1228H1331H1331.83L1331.75 147.928C1330.73 137.455 1322.1 129.25 1311.56 129.25C1307.34 129.25 1303.41 130.573 1300.16 132.833C1296.03 123.644 1286.95 117.25 1276.4 117.25C1265.19 117.25 1255.65 124.461 1251.93 134.574C1249.83 133.72 1247.54 133.25 1245.15 133.25C1236.41 133.25 1229.12 139.497 1227.27 147.838Z" fill="white"/>
<path d="M1227.27 147.838L1227.07 148.75H1228H1331H1331.83L1331.75 147.928C1330.73 137.455 1322.1 129.25 1311.56 129.25C1307.34 129.25 1303.41 130.573 1300.16 132.833C1296.03 123.644 1286.95 117.25 1276.4 117.25C1265.19 117.25 1255.65 124.461 1251.93 134.574C1249.83 133.72 1247.54 133.25 1245.15 133.25C1236.41 133.25 1229.12 139.497 1227.27 147.838Z" stroke="white" stroke-opacity="0.2" stroke-width="1.5"/>
<path d="M1227.27 147.838L1227.07 148.75H1228H1331H1331.83L1331.75 147.928C1330.73 137.455 1322.1 129.25 1311.56 129.25C1307.34 129.25 1303.41 130.573 1300.16 132.833C1296.03 123.644 1286.95 117.25 1276.4 117.25C1265.19 117.25 1255.65 124.461 1251.93 134.574C1249.83 133.72 1247.54 133.25 1245.15 133.25C1236.41 133.25 1229.12 139.497 1227.27 147.838Z" stroke="#DCF3FF" stroke-width="1.5"/>
<path d="M978.268 268.838L978.066 269.75H979H1082H1082.83L1082.75 268.928C1081.73 258.455 1073.1 250.25 1062.56 250.25C1058.34 250.25 1054.41 251.573 1051.16 253.833C1047.03 244.644 1037.95 238.25 1027.4 238.25C1016.19 238.25 1006.65 245.461 1002.93 255.574C1000.83 254.72 998.539 254.25 996.145 254.25C987.408 254.25 980.116 260.497 978.268 268.838Z" fill="white"/>
<path d="M978.268 268.838L978.066 269.75H979H1082H1082.83L1082.75 268.928C1081.73 258.455 1073.1 250.25 1062.56 250.25C1058.34 250.25 1054.41 251.573 1051.16 253.833C1047.03 244.644 1037.95 238.25 1027.4 238.25C1016.19 238.25 1006.65 245.461 1002.93 255.574C1000.83 254.72 998.539 254.25 996.145 254.25C987.408 254.25 980.116 260.497 978.268 268.838Z" stroke="white" stroke-opacity="0.2" stroke-width="1.5"/>
<path d="M978.268 268.838L978.066 269.75H979H1082H1082.83L1082.75 268.928C1081.73 258.455 1073.1 250.25 1062.56 250.25C1058.34 250.25 1054.41 251.573 1051.16 253.833C1047.03 244.644 1037.95 238.25 1027.4 238.25C1016.19 238.25 1006.65 245.461 1002.93 255.574C1000.83 254.72 998.539 254.25 996.145 254.25C987.408 254.25 980.116 260.497 978.268 268.838Z" stroke="#DCF3FF" stroke-width="1.5"/>
<path d="M24.2678 58.8374L24.0651 59.75H25H228H228.826L228.746 58.9275C226.779 38.6836 210.057 22.85 189.69 22.85C181.201 22.85 173.341 25.6031 166.921 30.2805C159.063 12.0175 141.193 -0.75 120.391 -0.75C98.3645 -0.75 79.6256 13.564 72.5788 33.5614C68.3408 31.7296 63.6811 30.7167 58.7912 30.7167C41.9315 30.7167 27.8415 42.7474 24.2678 58.8374Z" fill="white"/>
<path d="M24.2678 58.8374L24.0651 59.75H25H228H228.826L228.746 58.9275C226.779 38.6836 210.057 22.85 189.69 22.85C181.201 22.85 173.341 25.6031 166.921 30.2805C159.063 12.0175 141.193 -0.75 120.391 -0.75C98.3645 -0.75 79.6256 13.564 72.5788 33.5614C68.3408 31.7296 63.6811 30.7167 58.7912 30.7167C41.9315 30.7167 27.8415 42.7474 24.2678 58.8374Z" stroke="white" stroke-opacity="0.2" stroke-width="1.5"/>
<path d="M24.2678 58.8374L24.0651 59.75H25H228H228.826L228.746 58.9275C226.779 38.6836 210.057 22.85 189.69 22.85C181.201 22.85 173.341 25.6031 166.921 30.2805C159.063 12.0175 141.193 -0.75 120.391 -0.75C98.3645 -0.75 79.6256 13.564 72.5788 33.5614C68.3408 31.7296 63.6811 30.7167 58.7912 30.7167C41.9315 30.7167 27.8415 42.7474 24.2678 58.8374Z" stroke="#DCF3FF" stroke-width="1.5"/>
<path d="M-36.7322 268.838L-36.9344 269.75H-36H67H67.8262L67.7465 268.928C66.7309 258.455 58.0955 250.25 47.5621 250.25C43.3363 250.25 39.412 251.573 36.1646 253.833C32.0329 244.644 22.9526 238.25 12.4002 238.25C1.19342 238.25 -8.35248 245.461 -12.075 255.574C-14.1726 254.72 -16.4607 254.25 -18.8547 254.25C-27.5924 254.25 -34.8838 260.497 -36.7322 268.838Z" fill="white"/>
<path d="M-36.7322 268.838L-36.9344 269.75H-36H67H67.8262L67.7465 268.928C66.7309 258.455 58.0955 250.25 47.5621 250.25C43.3363 250.25 39.412 251.573 36.1646 253.833C32.0329 244.644 22.9526 238.25 12.4002 238.25C1.19342 238.25 -8.35248 245.461 -12.075 255.574C-14.1726 254.72 -16.4607 254.25 -18.8547 254.25C-27.5924 254.25 -34.8838 260.497 -36.7322 268.838Z" stroke="white" stroke-opacity="0.2" stroke-width="1.5"/>
<path d="M-36.7322 268.838L-36.9344 269.75H-36H67H67.8262L67.7465 268.928C66.7309 258.455 58.0955 250.25 47.5621 250.25C43.3363 250.25 39.412 251.573 36.1646 253.833C32.0329 244.644 22.9526 238.25 12.4002 238.25C1.19342 238.25 -8.35248 245.461 -12.075 255.574C-14.1726 254.72 -16.4607 254.25 -18.8547 254.25C-27.5924 254.25 -34.8838 260.497 -36.7322 268.838Z" stroke="#DCF3FF" stroke-width="1.5"/>
</g>
<defs>
<linearGradient id="paint0_linear_2728_70994" x1="-0.853407" y1="203.41" x2="274.908" y2="267.579" gradientUnits="userSpaceOnUse">
<stop stop-color="#E6F7FF"/>
<stop offset="1" stop-color="#F3FBFF"/>
</linearGradient>
<linearGradient id="paint1_linear_2728_70994" x1="1279.77" y1="203.41" x2="1004.01" y2="267.579" gradientUnits="userSpaceOnUse">
<stop stop-color="#E6F7FF"/>
<stop offset="1" stop-color="#F3FBFF"/>
</linearGradient>
<clipPath id="clip0_2728_70994">
<rect width="1280" height="263" fill="white"/>
</clipPath>
</defs>
</svg>
