<svg
      width="20"
      height="20"
      viewBox="0 0 20 20"
      fill="none"
      xmlns="http://www.w3.org/2000/svg"
    >
      <path
        d="M17.9167 4.99996H10L7.50004 2.91663H2.08337V16.25H17.9167V4.99996Z"
        fill="#D9FBF7"
      />
      <path
        fill-rule="evenodd"
        clip-rule="evenodd"
        d="M1.56561 2.39886C2.03445 1.93002 2.67033 1.66663 3.33337 1.66663H6.61268C7.02445 1.66876 7.42932 1.77257 7.79131 1.96884C8.15101 2.16385 8.45731 2.44416 8.68337 2.78511L9.36308 3.7798L9.37102 3.79164C9.44651 3.90627 9.54914 4.00048 9.66981 4.0659C9.78995 4.13104 9.92426 4.16563 10.0609 4.16663H16.6667C17.3297 4.16663 17.9656 4.43002 18.4345 4.89886C18.9033 5.3677 19.1667 6.00358 19.1667 6.66663V15C19.1667 15.663 18.9033 16.2989 18.4345 16.7677C17.9656 17.2366 17.3297 17.5 16.6667 17.5H3.33337C1.95647 17.5 0.833374 16.3769 0.833374 15V4.16663C0.833374 3.50358 1.09677 2.8677 1.56561 2.39886ZM3.33337 3.33329C3.11236 3.33329 2.9004 3.42109 2.74412 3.57737C2.58784 3.73365 2.50004 3.94561 2.50004 4.16663V15C2.50004 15.4564 2.87694 15.8333 3.33337 15.8333H16.6667C16.8877 15.8333 17.0997 15.7455 17.256 15.5892C17.4122 15.4329 17.5 15.221 17.5 15V6.66663C17.5 6.44561 17.4122 6.23365 17.256 6.07737C17.0997 5.92109 16.8877 5.83329 16.6667 5.83329H10.0541C9.64229 5.83116 9.23743 5.72734 8.87543 5.53108C8.51574 5.33607 8.20944 5.05576 7.98338 4.71481L7.30367 3.72012L7.29573 3.70828C7.22024 3.59365 7.1176 3.49943 6.99694 3.43401C6.8768 3.36888 6.74249 3.33429 6.60585 3.33329H3.33337Z"
        fill="#3968D4"
      />
    </svg>