<svg
      xmlns="http://www.w3.org/2000/svg"
      width="17"
      height="16"
      fill="none"
      viewBox="0 0 17 16"
    >
      <path
        fill="#030912"
        fillRule="evenodd"
        d="M1.752 1.92a2 2 0 011.415-.587H5.79a2 2 0 011.657.895l.543.796.007.01a.667.667 0 00.552.3h5.284a2 2 0 012 2V12a2 2 0 01-2 2H3.167c-1.102 0-2-.898-2-2V3.333a2 2 0 01.585-1.414zm1.415.747a.667.667 0 00-.667.666V12a.67.67 0 00.667.667h10.666A.666.666 0 0014.5 12V5.333a.667.667 0 00-.667-.666h-5.29a2 2 0 01-1.656-.895l-.544-.796-.006-.01a.667.667 0 00-.552-.3H3.167z"
        clipRule="evenodd"
      ></path>
      <path
        fill="#030912"
        fillRule="evenodd"
        d="M8.5 6c.368 0 .667.298.667.667v4a.667.667 0 01-1.334 0v-4c0-.369.299-.667.667-.667z"
        clipRule="evenodd"
      ></path>
      <path
        fill="#030912"
        fillRule="evenodd"
        d="M5.833 8.667c0-.369.299-.667.667-.667h4a.667.667 0 110 1.333h-4a.667.667 0 01-.667-.666z"
        clipRule="evenodd"
      ></path>
    </svg>