<svg width="68" height="67" viewBox="0 0 68 67" fill="none" xmlns="http://www.w3.org/2000/svg">
<rect x="14.0922" width="54.4469" height="54.4469" rx="10.7109" transform="rotate(15 14.0922 0)" fill="white"/>
<g filter="url(#filter0_d_3202_32379)">
<rect x="11" y="11" width="44.6286" height="44.6286" rx="10.7109" fill="white"/>
</g>
<path d="M38.803 27.3953H31.7293C31.5446 27.3953 31.3698 27.3116 31.2542 27.1676L29.8949 25.4899C29.6379 25.1772 29.2537 24.9973 28.8489 25H25.3219C24.7058 25.0019 24.1157 25.2479 23.6805 25.684C23.2454 26.1201 23.0007 26.7108 23 27.3268V37.1241C23.0007 37.7411 23.246 38.3326 23.6822 38.7688C24.1184 39.205 24.7099 39.4503 25.3269 39.451H38.7981C39.4151 39.4503 40.0066 39.205 40.4428 38.7688C40.879 38.3326 41.1243 37.7411 41.125 37.1241V29.7224C41.1243 29.1063 40.8797 28.5155 40.4445 28.0795C40.0093 27.6433 39.4192 27.3974 38.8031 27.3954L38.803 27.3953Z" fill="url(#paint0_linear_3202_32379)"/>
<defs>
<filter id="filter0_d_3202_32379" x="-8.6366" y="-2.38859" width="83.9019" height="83.9019" filterUnits="userSpaceOnUse" color-interpolation-filters="sRGB">
<feFlood flood-opacity="0" result="BackgroundImageFix"/>
<feColorMatrix in="SourceAlpha" type="matrix" values="0 0 0 0 0 0 0 0 0 0 0 0 0 0 0 0 0 0 127 0" result="hardAlpha"/>
<feOffset dy="6.24801"/>
<feGaussianBlur stdDeviation="9.8183"/>
<feComposite in2="hardAlpha" operator="out"/>
<feColorMatrix type="matrix" values="0 0 0 0 0.486275 0 0 0 0 0.545098 0 0 0 0 0.619608 0 0 0 0.16 0"/>
<feBlend mode="normal" in2="BackgroundImageFix" result="effect1_dropShadow_3202_32379"/>
<feBlend mode="normal" in="SourceGraphic" in2="effect1_dropShadow_3202_32379" result="shape"/>
</filter>
<linearGradient id="paint0_linear_3202_32379" x1="32.0625" y1="25" x2="32.0625" y2="39.451" gradientUnits="userSpaceOnUse">
<stop stop-color="#FF9364"/>
<stop offset="1" stop-color="#F25F33"/>
</linearGradient>
</defs>
</svg>
