<svg width="73" height="90" viewBox="0 0 73 90" fill="none" xmlns="http://www.w3.org/2000/svg">
<path d="M0 6C0 3.79086 1.79086 2 4 2H51L61 12L71 21V86C71 88.2091 69.2091 90 67 90H4C1.79086 90 0 88.2091 0 86V6Z" fill="#8CA7E6"/>
<path d="M11.9561 54V51.2H14.5961V54H11.9561ZM18.4947 54V39.1H24.0547C25.068 39.1 25.9614 39.2867 26.7347 39.66C27.5214 40.02 28.1347 40.5533 28.5747 41.26C29.0147 41.9533 29.2347 42.8 29.2347 43.8C29.2347 44.7867 29.008 45.6333 28.5547 46.34C28.1147 47.0333 27.508 47.5667 26.7347 47.94C25.9614 48.3133 25.068 48.5 24.0547 48.5H21.2147V54H18.4947ZM21.2147 46.1H24.0947C24.588 46.1 25.0147 46.0067 25.3747 45.82C25.7347 45.62 26.0147 45.3467 26.2147 45C26.4147 44.6533 26.5147 44.2533 26.5147 43.8C26.5147 43.3333 26.4147 42.9333 26.2147 42.6C26.0147 42.2533 25.7347 41.9867 25.3747 41.8C25.0147 41.6 24.588 41.5 24.0947 41.5H21.2147V46.1ZM31.4634 54V39.1H33.5834L41.7834 50.14L40.6834 50.36V39.1H43.4034V54H41.2634L33.1834 42.88L34.1834 42.66V54H31.4634ZM53.3477 54.24C52.281 54.24 51.2943 54.0467 50.3877 53.66C49.481 53.2733 48.6877 52.7333 48.0077 52.04C47.3277 51.3467 46.7943 50.5333 46.4077 49.6C46.0343 48.6667 45.8477 47.6467 45.8477 46.54C45.8477 45.4333 46.0277 44.4133 46.3877 43.48C46.761 42.5333 47.281 41.72 47.9477 41.04C48.6277 40.3467 49.421 39.8133 50.3277 39.44C51.2343 39.0533 52.221 38.86 53.2877 38.86C54.3543 38.86 55.3077 39.04 56.1477 39.4C57.001 39.76 57.721 40.24 58.3077 40.84C58.8943 41.4267 59.3143 42.0733 59.5677 42.78L57.1477 43.94C56.8677 43.1667 56.3943 42.54 55.7277 42.06C55.061 41.58 54.2477 41.34 53.2877 41.34C52.3543 41.34 51.5277 41.56 50.8077 42C50.101 42.44 49.5477 43.0467 49.1477 43.82C48.761 44.5933 48.5677 45.5 48.5677 46.54C48.5677 47.58 48.7677 48.4933 49.1677 49.28C49.581 50.0533 50.1477 50.66 50.8677 51.1C51.5877 51.54 52.4143 51.76 53.3477 51.76C54.1077 51.76 54.8077 51.6133 55.4477 51.32C56.0877 51.0133 56.601 50.5867 56.9877 50.04C57.3743 49.48 57.5677 48.82 57.5677 48.06V46.92L58.8077 48H53.2877V45.7H60.2877V47.2C60.2877 48.3467 60.0943 49.36 59.7077 50.24C59.321 51.12 58.7943 51.86 58.1277 52.46C57.4743 53.0467 56.7343 53.4933 55.9077 53.8C55.081 54.0933 54.2277 54.24 53.3477 54.24Z" fill="white"/>
<g filter="url(#filter0_d_37_8310)">
<path d="M51 2L61 11.5L71 21H55C52.7909 21 51 19.2091 51 17V2Z" fill="white"/>
<path d="M51.5 17V3.16466L60.6556 11.8625L69.7477 20.5H55C53.067 20.5 51.5 18.933 51.5 17Z" stroke="#AEC1ED"/>
</g>
<defs>
<filter id="filter0_d_37_8310" x="45" y="0" width="28" height="27" filterUnits="userSpaceOnUse" color-interpolation-filters="sRGB">
<feFlood flood-opacity="0" result="BackgroundImageFix"/>
<feColorMatrix in="SourceAlpha" type="matrix" values="0 0 0 0 0 0 0 0 0 0 0 0 0 0 0 0 0 0 127 0" result="hardAlpha"/>
<feOffset dx="-2" dy="2"/>
<feGaussianBlur stdDeviation="2"/>
<feComposite in2="hardAlpha" operator="out"/>
<feColorMatrix type="matrix" values="0 0 0 0 0.333681 0 0 0 0 0.453739 0 0 0 0 0.645833 0 0 0 0.5 0"/>
<feBlend mode="normal" in2="BackgroundImageFix" result="effect1_dropShadow_37_8310"/>
<feBlend mode="normal" in="SourceGraphic" in2="effect1_dropShadow_37_8310" result="shape"/>
</filter>
</defs>
</svg>
