<svg width="1280" height="247" viewBox="0 0 1280 247" fill="none" xmlns="http://www.w3.org/2000/svg">
<path d="M3.96603e-05 142.42C210.5 108.894 355.06 196.981 399 247L3.05176e-05 247L3.96603e-05 142.42Z" fill="url(#paint0_linear_1530_29656)"/>
<path d="M289.13 56.6766L289.118 56.6716L289.106 56.667C167.585 9.37105 45.9267 21.8394 -0.999997 30.2867L-0.999996 9.70871C135.778 -12.158 253.879 17.4686 299.237 36.7017L299.252 36.7083L299.268 36.7143C302.505 37.96 306.019 40.229 308.347 43.2056C310.647 46.1458 311.763 49.7241 310.42 53.7603C309.406 56.1654 308.085 57.6984 306.606 58.6411C305.116 59.5909 303.383 59.9929 301.474 59.9967C297.603 60.0044 293.204 58.3829 289.13 56.6766Z" fill="white" stroke="#E7F7FF" stroke-width="2"/>
<path d="M60.7604 42.7204L60.751 42.7211C57.2173 42.9833 53.0527 42.737 49.5613 41.0991C46.1318 39.4902 43.2824 36.5114 42.3236 31.0974C41.1828 24.6561 43.1966 20.5741 46.1592 17.9658C49.1812 15.3051 53.2964 14.0909 56.4353 13.6871C100.003 9.87853 214.827 7.83865 325.697 61.884L325.713 61.8917L325.729 61.8988C344.375 70.1935 385.185 90.0937 409.466 108.736L409.478 108.745L409.49 108.753C411.851 110.457 415.158 113.394 416.871 117.179C417.721 119.056 418.173 121.128 417.939 123.367C417.705 125.605 416.778 128.075 414.772 130.74C412.237 134.109 409.656 136.036 407.204 137.045C404.754 138.053 402.368 138.171 400.178 137.822C396.091 137.171 392.742 134.911 391.037 133.761C390.894 133.664 390.763 133.575 390.643 133.496C390.565 133.444 390.396 133.326 390.138 133.146C380.402 126.351 243.629 30.8888 60.7604 42.7204Z" fill="white" stroke="#D4FAF6" stroke-width="2"/>
<path d="M-0.999993 74.1439C25.5363 70.1769 91.9592 64.8256 152.381 74.2719C190.692 80.2615 217.472 84.7312 234.255 91.8973C242.622 95.4699 248.387 99.6669 251.863 104.953C255.328 110.222 256.603 116.701 255.739 125.016C254.877 133.303 252.059 139.003 248.312 142.898C244.558 146.802 239.798 148.97 234.932 150.061C230.063 151.152 225.126 151.156 221.084 150.758C217.026 150.358 213.947 149.563 212.805 149.11C212.089 148.826 209.786 148.21 206.211 147.396C202.595 146.573 197.599 145.531 191.428 144.399C179.086 142.136 162.038 139.515 141.934 137.581C102.046 133.743 50.0894 132.603 -0.999999 142.349L-0.999993 74.1439Z" fill="white" stroke="#E7F7FF" stroke-width="2"/>
<path d="M150.805 115.172L150.826 115.174L150.846 115.176C235.066 121.284 308.305 150.047 356.099 182.09L356.135 182.115L356.174 182.136C366.134 187.602 370.297 194.415 371.555 200.628C372.823 206.891 371.166 212.672 369.267 216.049L369.263 216.056L369.259 216.063C366.646 220.878 363.426 223.934 359.959 225.747C356.486 227.562 352.702 228.163 348.918 227.963C341.319 227.562 333.834 223.937 329.271 220.693L329.225 220.661L329.177 220.634C277.668 192.021 237.508 178.073 206.89 170.845C184.011 165.445 166.429 163.796 153.529 162.586C149.183 162.178 145.368 161.821 142.061 161.386C131.769 160.033 126.282 155.282 123.516 150C120.717 144.657 120.64 138.641 121.437 134.752L121.44 134.74C123.17 125.751 128.385 120.653 134.219 117.889C140.099 115.104 146.62 114.691 150.805 115.172Z" fill="white" stroke="#E7F7FF" stroke-width="2"/>
<path d="M1280 142.42C1069.5 108.894 924.94 196.981 881 247L1280 247L1280 142.42Z" fill="url(#paint1_linear_1530_29656)"/>
<path d="M990.87 56.6766L990.882 56.6716L990.894 56.667C1112.42 9.37105 1234.07 21.8394 1281 30.2867L1281 9.70871C1144.22 -12.158 1026.12 17.4686 980.763 36.7017L980.748 36.7083L980.732 36.7143C977.495 37.96 973.981 40.229 971.653 43.2056C969.353 46.1458 968.237 49.7241 969.58 53.7603C970.594 56.1654 971.915 57.6984 973.394 58.6411C974.884 59.5909 976.617 59.9929 978.526 59.9967C982.397 60.0044 986.796 58.3829 990.87 56.6766Z" fill="white" stroke="#E7F7FF" stroke-width="2"/>
<path d="M1219.24 42.7204L1219.25 42.7211C1222.78 42.9833 1226.95 42.737 1230.44 41.0991C1233.87 39.4902 1236.72 36.5115 1237.68 31.0974C1238.82 24.6561 1236.8 20.5741 1233.84 17.9658C1230.82 15.3051 1226.7 14.0909 1223.56 13.6871C1180 9.87854 1065.17 7.83867 954.303 61.884L954.287 61.8917L954.271 61.8988C935.625 70.1935 894.815 90.0937 870.534 108.736L870.522 108.745L870.51 108.753C868.149 110.457 864.842 113.394 863.129 117.179C862.279 119.056 861.827 121.128 862.061 123.367C862.295 125.605 863.222 128.075 865.228 130.74C867.763 134.109 870.344 136.036 872.796 137.045C875.246 138.053 877.632 138.171 879.822 137.822C883.909 137.171 887.258 134.911 888.963 133.761C889.106 133.664 889.237 133.575 889.357 133.496C889.435 133.444 889.604 133.326 889.862 133.146C899.598 126.351 1036.37 30.8888 1219.24 42.7204Z" fill="white" stroke="#D4FAF6" stroke-width="2"/>
<path d="M1281 142.349L1281 74.1439C1254.46 70.1769 1188.04 64.8256 1127.62 74.2719C1089.31 80.2615 1062.53 84.7312 1045.74 91.8973C1037.38 95.4699 1031.61 99.6669 1028.14 104.953C1024.67 110.222 1023.4 116.701 1024.26 125.016C1025.12 133.303 1027.94 139.003 1031.69 142.898C1035.44 146.802 1040.2 148.97 1045.07 150.061C1049.94 151.152 1054.87 151.156 1058.92 150.758C1062.97 150.358 1066.05 149.563 1067.2 149.11C1067.91 148.826 1070.21 148.21 1073.79 147.396C1077.4 146.573 1082.4 145.531 1088.57 144.399C1100.91 142.136 1117.96 139.515 1138.07 137.581C1177.95 133.743 1229.91 132.603 1281 142.349Z" fill="white" stroke="#E7F7FF" stroke-width="2"/>
<path d="M923.901 182.09L923.865 182.115L923.826 182.136C913.866 187.602 909.703 194.415 908.445 200.628C907.177 206.891 908.834 212.672 910.733 216.049L910.737 216.056L910.741 216.063C913.354 220.878 916.574 223.934 920.041 225.747C923.514 227.562 927.298 228.163 931.082 227.963C938.681 227.562 946.166 223.937 950.729 220.693L950.775 220.661L950.823 220.634C1002.33 192.021 1042.49 178.073 1073.11 170.845C1095.99 165.445 1113.57 163.796 1126.47 162.586C1130.82 162.178 1134.63 161.821 1137.94 161.386C1148.23 160.033 1153.72 155.282 1156.48 150C1159.28 144.657 1159.36 138.641 1158.56 134.752L1158.56 134.74C1156.83 125.751 1151.62 120.653 1145.78 117.889C1139.9 115.104 1133.38 114.691 1129.2 115.172L1129.17 115.174L1129.15 115.176C1044.93 121.284 971.695 150.047 923.901 182.09Z" fill="white" stroke="#E7F7FF" stroke-width="2"/>
<path d="M616.745 167.778L616.758 167.779C665.77 171.487 712.183 160.864 747.958 145.399L747.969 145.394L747.98 145.389C768.721 135.798 789.418 122.873 809.582 105.917C814.456 101.818 819.339 100.564 823.606 101.127C827.892 101.693 831.669 104.105 834.285 107.542C839.504 114.4 840.027 125.23 830.611 133.134C760.38 192.083 642.549 226.082 531.705 181.76L531.705 181.76L531.692 181.755C500.863 169.926 473.194 153.115 449.389 133.134C439.973 125.23 440.496 114.4 445.715 107.542C448.331 104.105 452.108 101.693 456.394 101.127C460.655 100.565 465.53 101.815 470.397 105.9C493.779 127.823 519.613 142.29 545.562 151.964L545.568 151.967C566.312 159.531 590.498 165.461 616.745 167.778Z" fill="white" stroke="#D4FAF6" stroke-width="2"/>
<path d="M615.469 179.778L615.481 179.779C667.182 183.485 716.144 172.867 753.885 157.406L753.897 157.402L753.908 157.397C775.788 147.809 797.624 134.887 818.9 117.933C824.052 113.828 829.23 112.561 833.769 113.128C838.324 113.698 842.324 116.125 845.084 119.563C847.846 123.001 849.344 127.42 848.933 131.941C848.523 136.445 846.212 141.134 841.203 145.118C767.078 204.076 642.695 238.091 525.682 193.754L525.682 193.754L525.669 193.749C493.126 181.916 463.921 165.101 438.797 145.118C433.788 141.134 431.477 136.445 431.067 131.941C430.656 127.42 432.154 123.001 434.916 119.563C437.676 116.125 441.676 113.698 446.231 113.128C450.764 112.562 455.934 113.825 461.079 117.917C485.749 139.837 513.003 154.299 540.377 163.97L540.383 163.973C562.267 171.534 587.781 177.462 615.469 179.778Z" fill="white" stroke="#E7F7FF" stroke-width="2"/>
<path d="M609.765 287.339L609.777 287.34C673.501 291.907 733.85 278.822 780.37 259.771L780.381 259.766L780.392 259.762C807.359 247.948 834.273 232.025 860.498 211.134C866.896 206.037 873.343 204.452 879.011 205.16C884.694 205.87 889.68 208.897 893.119 213.179C896.559 217.462 898.429 222.969 897.916 228.609C897.405 234.232 894.518 240.068 888.296 245.017C796.819 317.758 643.328 359.723 498.925 305.021L498.925 305.021L498.912 305.016C458.751 290.417 422.709 269.671 391.704 245.017C385.482 240.068 382.595 234.232 382.084 228.609C381.571 222.969 383.441 217.462 386.881 213.179C390.32 208.897 395.306 205.87 400.989 205.16C406.651 204.452 413.09 206.034 419.481 211.117C449.883 238.124 483.47 255.944 517.209 267.86L517.216 267.863C544.189 277.18 575.637 284.485 609.765 287.339Z" fill="white" stroke="#E7F7FF" stroke-width="2"/>
<defs>
<linearGradient id="paint0_linear_1530_29656" x1="4.5" y1="161.434" x2="399.031" y2="252.871" gradientUnits="userSpaceOnUse">
<stop stop-color="#E6F7FF"/>
<stop offset="1" stop-color="#F3FBFF"/>
</linearGradient>
<linearGradient id="paint1_linear_1530_29656" x1="1275.5" y1="161.434" x2="880.969" y2="252.871" gradientUnits="userSpaceOnUse">
<stop stop-color="#E6F7FF"/>
<stop offset="1" stop-color="#F3FBFF"/>
</linearGradient>
</defs>
</svg>
