<svg width="1280" height="201" viewBox="0 0 1280 201" fill="none" xmlns="http://www.w3.org/2000/svg">
<path d="M72.8713 125H-61.7112C-59.0242 115.644 -50.4069 108.8 -40.1951 108.8C-36.9169 108.8 -33.8058 109.505 -31.0026 110.77L-30.0005 111.222L-29.645 110.182C-25.2349 97.2763 -13.0099 88 1.37702 88C15.0076 88 26.6976 96.3262 31.6398 108.178L32.1349 109.365L33.1634 108.593C37.3376 105.457 42.5235 103.6 48.1457 103.6C60.7209 103.6 71.1278 112.899 72.8713 125Z" fill="white" stroke="#DCF3FF" stroke-width="2"/>
<path d="M1348.87 125H1214.29C1216.98 115.644 1225.59 108.8 1235.8 108.8C1239.08 108.8 1242.19 109.505 1245 110.77L1246 111.222L1246.36 110.182C1250.77 97.2763 1262.99 88 1277.38 88C1291.01 88 1302.7 96.3262 1307.64 108.178L1308.13 109.365L1309.16 108.593C1313.34 105.457 1318.52 103.6 1324.15 103.6C1336.72 103.6 1347.13 112.899 1348.87 125Z" fill="white" stroke="#DCF3FF" stroke-width="2"/>
<path d="M377.88 200H177.275C181.108 185.563 194.217 174.933 209.791 174.933C214.718 174.933 219.395 175.996 223.609 177.905L224.613 178.36L224.968 177.317C231.568 157.932 249.863 144 271.391 144C291.787 144 309.281 156.505 316.677 174.307L317.172 175.498L318.202 174.722C324.468 169.998 332.253 167.2 340.69 167.2C359.756 167.2 375.504 181.493 377.88 200Z" fill="white" stroke="#DCF3FF" stroke-width="2"/>
<path d="M1102.88 200H902.275C906.108 185.563 919.217 174.933 934.791 174.933C939.718 174.933 944.395 175.996 948.609 177.905L949.613 178.36L949.968 177.317C956.568 157.932 974.863 144 996.391 144C1016.79 144 1034.28 156.505 1041.68 174.307L1042.17 175.498L1043.2 174.722C1049.47 169.998 1057.25 167.2 1065.69 167.2C1084.76 167.2 1100.5 181.493 1102.88 200Z" fill="white" stroke="#DCF3FF" stroke-width="2"/>
<path d="M700.868 105H580.293C582.736 96.7137 590.4 90.6667 599.474 90.6667C602.403 90.6667 605.182 91.2958 607.686 92.4253L608.688 92.8773L609.043 91.8373C612.989 80.2959 623.926 72 636.798 72C648.994 72 659.453 79.4463 663.874 90.0455L664.369 91.2322L665.398 90.4601C669.128 87.6592 673.763 86 678.788 86C689.986 86 699.26 94.247 700.868 105Z" fill="white" stroke="#DCF3FF" stroke-width="2"/>
<path d="M1280 66.2965C1069.5 87.5494 924.94 31.7086 881 6.10352e-05L1280 2.61535e-05L1280 66.2965Z" fill="#E7FFFC"/>
<path d="M-3.63134e-05 66.2965C210.5 87.5494 355.06 31.7086 399 6.10352e-05L-3.05176e-05 2.61535e-05L-3.63134e-05 66.2965Z" fill="#E7FFFC"/>
</svg>
