<svg width="453" height="292" viewBox="0 0 453 292" fill="none" xmlns="http://www.w3.org/2000/svg">
<path d="M337.479 246.347C201.838 322.204 82.2546 290.63 4.14393 224.551C3.83006 224.285 3.71344 223.865 3.84506 223.388C3.97968 222.9 4.34598 222.488 4.81903 222.34C14.8752 219.191 21.7495 209.673 22.7676 200.046C22.8232 199.52 23.2648 198.955 23.9504 198.648C24.6369 198.34 25.2303 198.429 25.5585 198.732C80.4749 249.472 144.914 261.335 202.228 255.875C259.512 250.419 309.743 227.655 336.403 209.033C337.059 208.575 338 209.036 338 209.902V245.472C338 245.825 337.799 246.168 337.479 246.347Z" fill="white" stroke="#E7F7FF" stroke-width="2"/>
<path d="M437.617 54.168C429.533 126.647 395.67 194.307 326.281 232.687C317.003 237.267 309.893 238.548 304.419 237.638C298.988 236.736 295.018 233.651 292.04 229.152C287.392 221.622 287.966 214.954 290.58 209.65C293.228 204.279 297.997 200.262 301.741 198.262L301.278 197.396L301.741 198.262C368.413 162.646 389.98 86.5304 400.609 38.545C402.52 29.9156 407.103 25.3508 411.958 23.3786C416.871 21.3825 422.144 22.0032 425.467 23.9016C431.587 27.398 434.935 31.8489 436.612 36.929C438.302 42.0501 438.318 47.8846 437.617 54.168Z" fill="white" stroke="#E7F7FF" stroke-width="2"/>
</svg>
