<svg width="419" height="247" viewBox="0 0 419 247" fill="none" xmlns="http://www.w3.org/2000/svg">
<path d="M3.96603e-05 142.42C210.5 108.894 355.06 196.981 399 247L3.05176e-05 247L3.96603e-05 142.42Z" fill="url(#paint0_linear_1409_28058)"/>
<path d="M289.13 56.6766L289.118 56.6716L289.106 56.667C167.585 9.37105 45.9267 21.8394 -0.999997 30.2867L-0.999996 9.70871C135.778 -12.158 253.879 17.4686 299.237 36.7017L299.252 36.7083L299.268 36.7143C302.505 37.96 306.019 40.229 308.347 43.2056C310.647 46.1458 311.763 49.7241 310.42 53.7603C309.406 56.1654 308.085 57.6984 306.606 58.6411C305.116 59.5909 303.383 59.9929 301.474 59.9967C297.603 60.0044 293.204 58.3829 289.13 56.6766Z" fill="white" stroke="#E7F7FF" stroke-width="2"/>
<path d="M60.7604 42.7204L60.751 42.7211C57.2173 42.9833 53.0527 42.737 49.5613 41.0991C46.1318 39.4902 43.2824 36.5115 42.3236 31.0974C41.1828 24.6561 43.1966 20.5741 46.1592 17.9658C49.1812 15.3051 53.2964 14.0909 56.4353 13.6871C100.003 9.87854 214.827 7.83867 325.697 61.884L325.713 61.8917L325.729 61.8988C344.375 70.1935 385.185 90.0937 409.466 108.736L409.478 108.745L409.49 108.753C411.851 110.457 415.158 113.394 416.871 117.179C417.721 119.056 418.173 121.128 417.939 123.367C417.705 125.605 416.778 128.075 414.772 130.74C412.237 134.109 409.656 136.036 407.204 137.045C404.754 138.053 402.368 138.171 400.178 137.822C396.091 137.171 392.742 134.911 391.037 133.761C390.894 133.664 390.763 133.575 390.643 133.496C390.565 133.444 390.396 133.326 390.138 133.146C380.402 126.351 243.629 30.8888 60.7604 42.7204Z" fill="white" stroke="#D4FAF6" stroke-width="2"/>
<path d="M-0.999993 74.1439C25.5363 70.1769 91.9592 64.8256 152.381 74.2719C190.692 80.2615 217.472 84.7312 234.255 91.8973C242.622 95.4699 248.387 99.6669 251.863 104.953C255.328 110.222 256.603 116.701 255.739 125.016C254.877 133.303 252.059 139.003 248.312 142.898C244.558 146.802 239.798 148.97 234.932 150.061C230.063 151.152 225.126 151.156 221.084 150.758C217.026 150.358 213.947 149.563 212.805 149.11C212.089 148.826 209.786 148.21 206.211 147.396C202.595 146.573 197.599 145.531 191.428 144.399C179.086 142.136 162.038 139.515 141.934 137.581C102.046 133.743 50.0894 132.603 -0.999999 142.349L-0.999993 74.1439Z" fill="white" stroke="#E7F7FF" stroke-width="2"/>
<path d="M150.805 115.172L150.826 115.174L150.846 115.176C235.066 121.284 308.305 150.047 356.099 182.09L356.135 182.115L356.174 182.136C366.134 187.602 370.297 194.415 371.555 200.628C372.823 206.891 371.166 212.672 369.267 216.049L369.263 216.056L369.259 216.063C366.646 220.878 363.426 223.934 359.959 225.747C356.486 227.562 352.702 228.163 348.918 227.963C341.319 227.562 333.834 223.937 329.271 220.693L329.225 220.661L329.177 220.634C277.668 192.021 237.508 178.073 206.89 170.845C184.011 165.445 166.429 163.796 153.529 162.586C149.183 162.178 145.368 161.821 142.061 161.386C131.769 160.033 126.282 155.282 123.516 150C120.717 144.657 120.64 138.641 121.437 134.752L121.44 134.74C123.17 125.751 128.385 120.653 134.219 117.889C140.099 115.104 146.62 114.691 150.805 115.172Z" fill="white" stroke="#E7F7FF" stroke-width="2"/>
<defs>
<linearGradient id="paint0_linear_1409_28058" x1="4.5" y1="161.434" x2="399.031" y2="252.871" gradientUnits="userSpaceOnUse">
<stop stop-color="#E6F7FF"/>
<stop offset="1" stop-color="#F3FBFF"/>
</linearGradient>
</defs>
</svg>
