<svg width="518" height="147" viewBox="0 0 518 147" fill="none" xmlns="http://www.w3.org/2000/svg">
<path d="M235.745 67.7778L235.758 67.7787C284.77 71.4866 331.183 60.8639 366.958 45.399L366.969 45.394L366.98 45.3888C387.721 35.7981 408.418 22.8727 428.582 5.91679C433.456 1.81826 438.339 0.564472 442.606 1.12732C446.892 1.6926 450.669 4.10489 453.285 7.54216C458.504 14.4002 459.027 25.2305 449.611 33.1344C379.38 92.0833 261.549 126.082 150.705 81.7604L150.705 81.7603L150.692 81.7553C119.863 69.9257 92.1936 53.1148 68.3894 33.1344C58.973 25.2305 59.496 14.4002 64.715 7.54216C67.3308 4.10489 71.1083 1.6926 75.394 1.12732C79.6553 0.565263 84.5301 1.81474 89.3974 5.89953C112.779 27.8232 138.613 42.29 164.562 51.9645L164.568 51.967C185.312 59.5306 209.498 65.4605 235.745 67.7778Z" fill="white" stroke="#D4FAF6" stroke-width="2"/>
<path d="M234.469 79.7782L234.481 79.779C286.182 83.4855 335.144 72.8669 372.885 57.4065L372.897 57.4019L372.908 57.397C394.788 47.8093 416.624 34.887 437.9 17.9335C443.052 13.8282 448.23 12.5608 452.769 13.1282C457.324 13.6975 461.324 16.125 464.084 19.5627C466.846 23.001 468.344 27.4199 467.933 31.9414C467.523 36.4455 465.212 41.1336 460.203 45.1177C386.078 104.076 261.695 138.091 144.682 93.7538L144.682 93.7537L144.669 93.7491C112.126 81.916 82.9208 65.101 57.7972 45.1177C52.7882 41.1336 50.4767 36.4455 50.0672 31.9414C49.6562 27.4199 51.1544 23.001 53.9156 19.5627C56.6763 16.125 60.6757 13.6975 65.231 13.1282C69.7643 12.5616 74.9341 13.8248 80.0792 17.9169C104.749 39.837 132.003 54.2994 159.377 63.9704L159.383 63.9726C181.267 71.5339 206.781 77.4618 234.469 79.7782Z" fill="white" stroke="#E7F7FF" stroke-width="2"/>
<path d="M228.765 187.339L228.777 187.34C292.501 191.907 352.85 178.822 399.37 159.771L399.381 159.766L399.392 159.762C426.359 147.948 453.273 132.025 479.498 111.134C485.896 106.037 492.343 104.452 498.011 105.16C503.694 105.87 508.68 108.897 512.119 113.179C515.559 117.462 517.429 122.969 516.916 128.609C516.405 134.232 513.518 140.068 507.296 145.017C415.819 217.758 262.328 259.723 117.925 205.021L117.925 205.021L117.912 205.016C77.7507 190.417 41.7092 169.671 10.7045 145.017C4.48163 140.068 1.59512 134.232 1.08388 128.609C0.57106 122.969 2.44055 117.462 5.88053 113.179C9.32009 108.897 14.3058 105.87 19.9892 105.16C25.6507 104.452 32.0903 106.034 38.4814 111.117C68.8826 138.124 102.47 155.944 136.209 167.86L136.216 167.863C163.189 177.18 194.637 184.485 228.765 187.339Z" fill="white" stroke="#E7F7FF" stroke-width="2"/>
</svg>
