<svg width="419" height="247" viewBox="0 0 419 247" fill="none" xmlns="http://www.w3.org/2000/svg">
<path d="M419 142.42C208.5 108.894 63.9401 196.981 20 247L419 247L419 142.42Z" fill="url(#paint0_linear_1409_28062)"/>
<path d="M129.87 56.6766L129.882 56.6716L129.894 56.667C251.415 9.37105 373.073 21.8394 420 30.2867L420 9.70871C283.222 -12.158 165.121 17.4686 119.763 36.7017L119.748 36.7083L119.732 36.7143C116.495 37.96 112.981 40.229 110.653 43.2056C108.353 46.1458 107.237 49.7241 108.58 53.7603C109.594 56.1654 110.915 57.6984 112.394 58.6411C113.884 59.5909 115.617 59.9929 117.526 59.9967C121.397 60.0044 125.796 58.3829 129.87 56.6766Z" fill="white" stroke="#E7F7FF" stroke-width="2"/>
<path d="M358.24 42.7204L358.249 42.7211C361.783 42.9833 365.947 42.737 369.439 41.0991C372.868 39.4902 375.718 36.5115 376.676 31.0974C377.817 24.6561 375.803 20.5741 372.841 17.9658C369.819 15.3051 365.704 14.0909 362.565 13.6871C318.997 9.87854 204.173 7.83867 93.3028 61.884L93.2871 61.8917L93.2711 61.8988C74.6246 70.1935 33.8149 90.0937 9.53354 108.736L9.52175 108.745L9.5097 108.753C7.14865 110.457 3.84187 113.394 2.12864 117.179C1.2793 119.056 0.827337 121.128 1.06147 123.367C1.29547 125.605 2.22153 128.075 4.22753 130.74C6.7631 134.109 9.34375 136.036 11.7956 137.045C14.2457 138.053 16.6318 138.171 18.8225 137.822C22.9091 137.171 26.2577 134.911 27.9626 133.761C28.1058 133.664 28.2375 133.575 28.357 133.496C28.4347 133.444 28.6037 133.326 28.8625 133.146C38.5982 126.351 175.371 30.8888 358.24 42.7204Z" fill="white" stroke="#D4FAF6" stroke-width="2"/>
<path d="M420 74.1439C393.464 70.1769 327.041 64.8256 266.619 74.2719C228.308 80.2615 201.528 84.7312 184.745 91.8973C176.378 95.4699 170.613 99.6669 167.137 104.953C163.672 110.222 162.397 116.701 163.261 125.016C164.123 133.303 166.941 139.003 170.688 142.898C174.442 146.802 179.202 148.97 184.068 150.061C188.937 151.152 193.874 151.156 197.916 150.758C201.974 150.358 205.053 149.563 206.195 149.11C206.911 148.826 209.214 148.21 212.789 147.396C216.405 146.573 221.401 145.531 227.572 144.399C239.914 142.136 256.962 139.515 277.066 137.581C316.954 133.743 368.911 132.603 420 142.349L420 74.1439Z" fill="white" stroke="#E7F7FF" stroke-width="2"/>
<path d="M268.195 115.172L268.174 115.174L268.154 115.176C183.934 121.284 110.695 150.047 62.9014 182.09L62.8646 182.115L62.8257 182.136C52.8659 187.602 48.7032 194.415 47.445 200.628C46.1768 206.891 47.8335 212.672 49.7333 216.049L49.7371 216.056L49.7407 216.063C52.3537 220.878 55.5737 223.934 59.0408 225.747C62.5139 227.562 66.298 228.163 70.0819 227.963C77.6814 227.562 85.1664 223.937 89.7294 220.693L89.7746 220.661L89.8231 220.634C141.332 192.021 181.492 178.073 212.11 170.845C234.989 165.445 252.571 163.796 265.471 162.586C269.817 162.178 273.632 161.821 276.939 161.386C287.231 160.033 292.718 155.282 295.484 150C298.283 144.657 298.36 138.641 297.563 134.752L297.56 134.74C295.83 125.751 290.615 120.653 284.781 117.889C278.901 115.104 272.38 114.691 268.195 115.172Z" fill="white" stroke="#E7F7FF" stroke-width="2"/>
<defs>
<linearGradient id="paint0_linear_1409_28062" x1="414.5" y1="161.434" x2="19.9691" y2="252.871" gradientUnits="userSpaceOnUse">
<stop stop-color="#E6F7FF"/>
<stop offset="1" stop-color="#F3FBFF"/>
</linearGradient>
</defs>
</svg>
