<svg width="152" height="218" viewBox="0 0 152 218" fill="none" xmlns="http://www.w3.org/2000/svg">
<path d="M150.501 33.168C142.418 105.647 108.554 173.307 39.1652 211.687C29.8875 216.267 22.7774 217.548 17.303 216.638C11.8721 215.736 7.90193 212.651 4.92451 208.152C0.276444 200.622 0.850161 193.954 3.4647 188.65C6.1118 183.279 10.8817 179.262 14.6251 177.262L14.1625 176.396L14.6251 177.262C81.2969 141.646 102.864 65.5304 113.493 17.545C115.405 8.91555 119.987 4.35085 124.842 2.37859C129.755 0.382509 135.028 1.00316 138.351 2.90158C144.471 6.39802 147.819 10.8489 149.496 15.929C151.186 21.0501 151.202 26.8846 150.501 33.168Z" fill="white" stroke="#E7F7FF" stroke-width="2"/>
</svg>
