<svg width="9" height="15" viewBox="0 0 9 15" fill="none" xmlns="http://www.w3.org/2000/svg">
<path d="M8.0467 1.12747C8.23033 1.31545 8.3335 1.57036 8.3335 1.83616C8.3335 2.10196 8.23033 2.35688 8.0467 2.54486L3.19792 7.5067L8.0467 12.4685C8.22513 12.6576 8.32386 12.9108 8.32163 13.1736C8.3194 13.4365 8.21638 13.6879 8.03476 13.8737C7.85315 14.0596 7.60746 14.165 7.35063 14.1673C7.09379 14.1696 6.84636 14.0685 6.66161 13.8859L1.1203 8.21539C0.936658 8.02742 0.833496 7.7725 0.833496 7.5067C0.833496 7.2409 0.936658 6.98599 1.1203 6.79801L6.66161 1.12747C6.84531 0.939552 7.09441 0.833984 7.35415 0.833984C7.6139 0.833984 7.863 0.939552 8.0467 1.12747Z" fill="#0A0227"/>
</svg>
