<svg width="22" height="22" viewBox="0 0 22 22" fill="none" xmlns="http://www.w3.org/2000/svg">
<path d="M12 1C12 0.447715 11.5523 0 11 0C10.4477 0 10 0.447715 10 1H12ZM10 5C10 5.55228 10.4477 6 11 6C11.5523 6 12 5.55228 12 5H10ZM12 17C12 16.4477 11.5523 16 11 16C10.4477 16 10 16.4477 10 17H12ZM10 21C10 21.5523 10.4477 22 11 22C11.5523 22 12 21.5523 12 21H10ZM4.63711 3.22289C4.24658 2.83237 3.61342 2.83237 3.22289 3.22289C2.83237 3.61342 2.83237 4.24658 3.22289 4.63711L4.63711 3.22289ZM6.05289 7.46711C6.44342 7.85763 7.07658 7.85763 7.46711 7.46711C7.85763 7.07658 7.85763 6.44342 7.46711 6.05289L6.05289 7.46711ZM15.9471 14.5329C15.5566 14.1424 14.9234 14.1424 14.5329 14.5329C14.1424 14.9234 14.1424 15.5566 14.5329 15.9471L15.9471 14.5329ZM17.3629 18.7771C17.7534 19.1676 18.3866 19.1676 18.7771 18.7771C19.1676 18.3866 19.1676 17.7534 18.7771 17.3629L17.3629 18.7771ZM1 10C0.447715 10 0 10.4477 0 11C0 11.5523 0.447715 12 1 12V10ZM5 12C5.55228 12 6 11.5523 6 11C6 10.4477 5.55228 10 5 10V12ZM17 10C16.4477 10 16 10.4477 16 11C16 11.5523 16.4477 12 17 12V10ZM21 12C21.5523 12 22 11.5523 22 11C22 10.4477 21.5523 10 21 10V12ZM3.22289 17.3629C2.83237 17.7534 2.83237 18.3866 3.22289 18.7771C3.61342 19.1676 4.24658 19.1676 4.63711 18.7771L3.22289 17.3629ZM7.46711 15.9471C7.85763 15.5566 7.85763 14.9234 7.46711 14.5329C7.07658 14.1424 6.44342 14.1424 6.05289 14.5329L7.46711 15.9471ZM14.5329 6.05289C14.1424 6.44342 14.1424 7.07658 14.5329 7.46711C14.9234 7.85763 15.5566 7.85763 15.9471 7.46711L14.5329 6.05289ZM18.7771 4.63711C19.1676 4.24658 19.1676 3.61342 18.7771 3.22289C18.3866 2.83237 17.7534 2.83237 17.3629 3.22289L18.7771 4.63711ZM10 1V5H12V1H10ZM10 17V21H12V17H10ZM3.22289 4.63711L6.05289 7.46711L7.46711 6.05289L4.63711 3.22289L3.22289 4.63711ZM14.5329 15.9471L17.3629 18.7771L18.7771 17.3629L15.9471 14.5329L14.5329 15.9471ZM1 12H5V10H1V12ZM17 12H21V10H17V12ZM4.63711 18.7771L7.46711 15.9471L6.05289 14.5329L3.22289 17.3629L4.63711 18.7771ZM15.9471 7.46711L18.7771 4.63711L17.3629 3.22289L14.5329 6.05289L15.9471 7.46711Z" fill="#0A0227"/>
</svg>
