<svg width="20" height="22" viewBox="0 0 20 22" fill="none" xmlns="http://www.w3.org/2000/svg">
<path d="M15 1C15 0.447715 14.5523 0 14 0C13.4477 0 13 0.447715 13 1H15ZM13 5C13 5.55228 13.4477 6 14 6C14.5523 6 15 5.55228 15 5H13ZM7 1C7 0.447715 6.55228 0 6 0C5.44772 0 5 0.447715 5 1H7ZM5 5C5 5.55228 5.44772 6 6 6C6.55228 6 7 5.55228 7 5H5ZM1 8C0.447715 8 0 8.44772 0 9C0 9.55229 0.447715 10 1 10V8ZM19 10C19.5523 10 20 9.55229 20 9C20 8.44772 19.5523 8 19 8V10ZM3 4H17V2H3V4ZM17 4C17.5523 4 18 4.44771 18 5H20C20 3.34315 18.6569 2 17 2V4ZM18 5V19H20V5H18ZM18 19C18 19.5523 17.5523 20 17 20V22C18.6569 22 20 20.6569 20 19H18ZM17 20H3V22H17V20ZM3 20C2.44771 20 2 19.5523 2 19H0C0 20.6569 1.34315 22 3 22V20ZM2 19V5H0V19H2ZM2 5C2 4.44772 2.44772 4 3 4V2C1.34315 2 0 3.34315 0 5H2ZM13 1V5H15V1H13ZM5 1V5H7V1H5ZM1 10H19V8H1V10Z" fill="#0A0227"/>
</svg>
