<svg width="21" height="20" viewBox="0 0 21 20" fill="none" xmlns="http://www.w3.org/2000/svg">
<path d="M7.70711 8.29289C7.31658 7.90237 6.68342 7.90237 6.29289 8.29289C5.90237 8.68342 5.90237 9.31658 6.29289 9.70711L7.70711 8.29289ZM10 12L9.29289 12.7071C9.68342 13.0976 10.3166 13.0976 10.7071 12.7071L10 12ZM20.7071 2.70711C21.0976 2.31658 21.0976 1.68342 20.7071 1.29289C20.3166 0.902369 19.6834 0.902369 19.2929 1.29289L20.7071 2.70711ZM20 10C20 9.44771 19.5523 9 19 9C18.4477 9 18 9.44771 18 10H20ZM1 17H0H1ZM3 1V0V1ZM14 2C14.5523 2 15 1.55228 15 1C15 0.447715 14.5523 0 14 0V2ZM6.29289 9.70711L9.29289 12.7071L10.7071 11.2929L7.70711 8.29289L6.29289 9.70711ZM10.7071 12.7071L20.7071 2.70711L19.2929 1.29289L9.29289 11.2929L10.7071 12.7071ZM18 10V17H20V10H18ZM18 17C18 17.2652 17.8946 17.5196 17.7071 17.7071L19.1213 19.1213C19.6839 18.5587 20 17.7957 20 17H18ZM17.7071 17.7071C17.5196 17.8946 17.2652 18 17 18V20C17.7957 20 18.5587 19.6839 19.1213 19.1213L17.7071 17.7071ZM17 18H3V20H17V18ZM3 18C2.73478 18 2.48043 17.8946 2.29289 17.7071L0.87868 19.1213C1.44129 19.6839 2.20435 20 3 20V18ZM2.29289 17.7071C2.10536 17.5196 2 17.2652 2 17H0C0 17.7957 0.31607 18.5587 0.87868 19.1213L2.29289 17.7071ZM2 17V3H0V17H2ZM2 3C2 2.73478 2.10536 2.48043 2.29289 2.29289L0.87868 0.87868C0.31607 1.44129 0 2.20435 0 3H2ZM2.29289 2.29289C2.48043 2.10536 2.73478 2 3 2V0C2.20435 0 1.44129 0.31607 0.87868 0.87868L2.29289 2.29289ZM3 2H14V0H3V2Z" fill="#0A0227"/>
</svg>
