<svg width="20" height="19" viewBox="0 0 20 19" fill="none" xmlns="http://www.w3.org/2000/svg">
<path d="M9.64322 1.20379C9.79134 0.911606 10.2087 0.911605 10.3568 1.20379L12.8933 6.20748C12.9515 6.3222 13.0613 6.40196 13.1883 6.42182L18.731 7.288C19.0546 7.33858 19.1836 7.73547 18.9515 7.96663L14.9765 11.9253C14.8854 12.016 14.8434 12.1451 14.8638 12.2721L15.7528 17.8111C15.8047 18.1345 15.4671 18.3798 15.1755 18.2305L10.1823 15.6734C10.0678 15.6147 9.93215 15.6147 9.81767 15.6734L4.82446 18.2305C4.53289 18.3798 4.19528 18.1345 4.24719 17.8111L5.13617 12.2721C5.15655 12.1451 5.11462 12.016 5.02349 11.9253L1.04853 7.96663C0.816417 7.73547 0.945373 7.33858 1.26903 7.288L6.81166 6.42182C6.93874 6.40196 7.04852 6.32221 7.10667 6.20748L9.64322 1.20379Z" fill="#FFD66D"/>
</svg>
