<svg width="20" height="20" viewBox="0 0 20 20" fill="none" xmlns="http://www.w3.org/2000/svg">
<path d="M7.70711 6.29289C7.31658 5.90237 6.68342 5.90237 6.29289 6.29289C5.90237 6.68342 5.90237 7.31658 6.29289 7.70711L7.70711 6.29289ZM12.2929 13.7071C12.6834 14.0976 13.3166 14.0976 13.7071 13.7071C14.0976 13.3166 14.0976 12.6834 13.7071 12.2929L12.2929 13.7071ZM13.7071 7.70711C14.0976 7.31658 14.0976 6.68342 13.7071 6.29289C13.3166 5.90237 12.6834 5.90237 12.2929 6.29289L13.7071 7.70711ZM6.29289 12.2929C5.90237 12.6834 5.90237 13.3166 6.29289 13.7071C6.68342 14.0976 7.31658 14.0976 7.70711 13.7071L6.29289 12.2929ZM3 2H17V0H3V2ZM17 2C17.5523 2 18 2.44771 18 3H20C20 1.34315 18.6569 0 17 0V2ZM18 3V17H20V3H18ZM18 17C18 17.5523 17.5523 18 17 18V20C18.6569 20 20 18.6569 20 17H18ZM17 18H3V20H17V18ZM3 18C2.44771 18 2 17.5523 2 17H0C0 18.6569 1.34315 20 3 20V18ZM2 17V3H0V17H2ZM2 3C2 2.44772 2.44772 2 3 2V0C1.34315 0 0 1.34315 0 3H2ZM6.29289 7.70711L12.2929 13.7071L13.7071 12.2929L7.70711 6.29289L6.29289 7.70711ZM12.2929 6.29289L6.29289 12.2929L7.70711 13.7071L13.7071 7.70711L12.2929 6.29289Z" fill="#0A0227"/>
</svg>
