<svg width="20" height="20" viewBox="0 0 20 20" fill="none" xmlns="http://www.w3.org/2000/svg">
<path d="M17 11C17 10.4477 16.5523 10 16 10C15.4477 10 15 10.4477 15 11H17ZM1 17H0H1ZM3 4V3V4ZM9 5C9.55229 5 10 4.55228 10 4C10 3.44772 9.55229 3 9 3V5ZM13 0C12.4477 0 12 0.447715 12 1C12 1.55228 12.4477 2 13 2V0ZM19 1H20C20 0.447715 19.5523 0 19 0V1ZM18 7C18 7.55228 18.4477 8 19 8C19.5523 8 20 7.55228 20 7H18ZM7.29289 11.2929C6.90237 11.6834 6.90237 12.3166 7.29289 12.7071C7.68342 13.0976 8.31658 13.0976 8.70711 12.7071L7.29289 11.2929ZM15 11V17H17V11H15ZM15 17C15 17.2652 14.8946 17.5196 14.7071 17.7071L16.1213 19.1213C16.6839 18.5587 17 17.7957 17 17H15ZM14.7071 17.7071C14.5196 17.8946 14.2652 18 14 18V20C14.7957 20 15.5587 19.6839 16.1213 19.1213L14.7071 17.7071ZM14 18H3V20H14V18ZM3 18C2.73478 18 2.48043 17.8946 2.29289 17.7071L0.87868 19.1213C1.44129 19.6839 2.20435 20 3 20V18ZM2.29289 17.7071C2.10536 17.5196 2 17.2652 2 17H0C0 17.7957 0.31607 18.5587 0.87868 19.1213L2.29289 17.7071ZM2 17V6H0V17H2ZM2 6C2 5.73478 2.10536 5.48043 2.29289 5.29289L0.87868 3.87868C0.31607 4.44129 0 5.20435 0 6H2ZM2.29289 5.29289C2.48043 5.10536 2.73478 5 3 5V3C2.20435 3 1.44129 3.31607 0.87868 3.87868L2.29289 5.29289ZM3 5H9V3H3V5ZM13 2H19V0H13V2ZM18 1V7H20V1H18ZM8.70711 12.7071L19.7071 1.70711L18.2929 0.292893L7.29289 11.2929L8.70711 12.7071Z" fill="#0A0227"/>
</svg>
