<svg width="28" height="24" viewBox="0 0 28 24" fill="none" xmlns="http://www.w3.org/2000/svg">
<path d="M4.07273 22C4.07273 22.6627 4.60999 23.2 5.27273 23.2C5.93547 23.2 6.47273 22.6627 6.47273 22H4.07273ZM6.47273 14.2222C6.47273 13.5595 5.93547 13.0222 5.27273 13.0222C4.60999 13.0222 4.07273 13.5595 4.07273 14.2222H6.47273ZM4.07273 9.77778C4.07273 10.4405 4.60999 10.9778 5.27273 10.9778C5.93547 10.9778 6.47273 10.4405 6.47273 9.77778H4.07273ZM6.47273 2C6.47273 1.33726 5.93547 0.8 5.27273 0.8C4.60999 0.8 4.07273 1.33726 4.07273 2H6.47273ZM12.8 22C12.8 22.6627 13.3373 23.2 14 23.2C14.6627 23.2 15.2 22.6627 15.2 22H12.8ZM15.2 12C15.2 11.3373 14.6627 10.8 14 10.8C13.3373 10.8 12.8 11.3373 12.8 12H15.2ZM12.8 7.55556C12.8 8.2183 13.3373 8.75556 14 8.75556C14.6627 8.75556 15.2 8.2183 15.2 7.55556H12.8ZM15.2 2C15.2 1.33726 14.6627 0.8 14 0.8C13.3373 0.8 12.8 1.33726 12.8 2H15.2ZM21.5273 22C21.5273 22.6627 22.0645 23.2 22.7273 23.2C23.39 23.2 23.9273 22.6627 23.9273 22H21.5273ZM23.9273 16.4444C23.9273 15.7817 23.39 15.2444 22.7273 15.2444C22.0645 15.2444 21.5273 15.7817 21.5273 16.4444H23.9273ZM21.5273 12C21.5273 12.6627 22.0645 13.2 22.7273 13.2C23.39 13.2 23.9273 12.6627 23.9273 12H21.5273ZM23.9273 2C23.9273 1.33726 23.39 0.8 22.7273 0.8C22.0645 0.8 21.5273 1.33726 21.5273 2H23.9273ZM2 13.0222C1.33726 13.0222 0.8 13.5595 0.8 14.2222C0.8 14.885 1.33726 15.4222 2 15.4222V13.0222ZM8.54545 15.4222C9.2082 15.4222 9.74545 14.885 9.74545 14.2222C9.74545 13.5595 9.2082 13.0222 8.54545 13.0222V15.4222ZM10.7273 6.35556C10.0645 6.35556 9.52727 6.89281 9.52727 7.55556C9.52727 8.2183 10.0645 8.75556 10.7273 8.75556V6.35556ZM17.2727 8.75556C17.9355 8.75556 18.4727 8.2183 18.4727 7.55556C18.4727 6.89281 17.9355 6.35556 17.2727 6.35556V8.75556ZM19.4545 15.2444C18.7918 15.2444 18.2545 15.7817 18.2545 16.4444C18.2545 17.1072 18.7918 17.6444 19.4545 17.6444V15.2444ZM26 17.6444C26.6627 17.6444 27.2 17.1072 27.2 16.4444C27.2 15.7817 26.6627 15.2444 26 15.2444V17.6444ZM6.47273 22V14.2222H4.07273V22H6.47273ZM6.47273 9.77778V2H4.07273V9.77778H6.47273ZM15.2 22V12H12.8V22H15.2ZM15.2 7.55556V2H12.8V7.55556H15.2ZM23.9273 22V16.4444H21.5273V22H23.9273ZM23.9273 12V2H21.5273V12H23.9273ZM2 15.4222H8.54545V13.0222H2V15.4222ZM10.7273 8.75556H17.2727V6.35556H10.7273V8.75556ZM19.4545 17.6444H26V15.2444H19.4545V17.6444Z" fill="#0A0227"/>
</svg>
