<svg width="18" height="22" viewBox="0 0 18 22" fill="none" xmlns="http://www.w3.org/2000/svg">
<path d="M17 14L17.7071 14.7071C17.8946 14.5196 18 14.2652 18 14H17ZM17 2H18C18 1.59554 17.7564 1.2309 17.3827 1.07612C17.009 0.921339 16.5789 1.0069 16.2929 1.29289L17 2ZM1 2L0.292893 1.29289C0.105357 1.48043 0 1.73478 0 2H1ZM0 21C0 21.5523 0.447715 22 1 22C1.55228 22 2 21.5523 2 21H0ZM1 14C1.70711 14.7071 1.70659 14.7076 1.70608 14.7081C1.70592 14.7083 1.70541 14.7088 1.70508 14.7091C1.70441 14.7098 1.70376 14.7104 1.70313 14.7111C1.70185 14.7123 1.70064 14.7135 1.69948 14.7147C1.69715 14.7169 1.69505 14.7189 1.69317 14.7207C1.68942 14.7243 1.68656 14.727 1.68464 14.7287C1.68078 14.7322 1.68067 14.7321 1.68454 14.729C1.69223 14.7226 1.71601 14.7037 1.75783 14.6758C1.8411 14.6203 1.99844 14.5277 2.24639 14.4285C2.74051 14.2308 3.61272 14 5 14V12C3.38728 12 2.25949 12.2692 1.50361 12.5715C1.12656 12.7223 0.846401 12.8797 0.648425 13.0117C0.549618 13.0776 0.471831 13.1368 0.413121 13.1851C0.383782 13.2093 0.359255 13.2307 0.33929 13.2488C0.329309 13.2579 0.320473 13.2662 0.312749 13.2735C0.308888 13.2772 0.305305 13.2807 0.301997 13.2839C0.300343 13.2855 0.298757 13.2871 0.29724 13.2886C0.296482 13.2893 0.29574 13.2901 0.295016 13.2908C0.294654 13.2911 0.294122 13.2917 0.293942 13.2918C0.293415 13.2924 0.292893 13.2929 1 14ZM5 14C6.28069 14 7.36051 14.4212 8.62861 14.9285C9.86051 15.4212 11.2807 16 13 16V14C11.7193 14 10.6395 13.5788 9.37139 13.0715C8.13949 12.5788 6.71931 12 5 12V14ZM13 16C14.6127 16 15.7405 15.7308 16.4964 15.4285C16.8734 15.2777 17.1536 15.1203 17.3516 14.9883C17.4504 14.9224 17.5282 14.8632 17.5869 14.8149C17.6162 14.7907 17.6407 14.7693 17.6607 14.7512C17.6707 14.7421 17.6795 14.7338 17.6873 14.7265C17.6911 14.7228 17.6947 14.7193 17.698 14.7161C17.6997 14.7145 17.7012 14.7129 17.7028 14.7114C17.7035 14.7107 17.7043 14.7099 17.705 14.7092C17.7053 14.7089 17.7059 14.7083 17.7061 14.7082C17.7066 14.7076 17.7071 14.7071 17 14C16.2929 13.2929 16.2934 13.2924 16.2939 13.2919C16.2941 13.2917 16.2946 13.2912 16.2949 13.2909C16.2956 13.2902 16.2962 13.2896 16.2969 13.2889C16.2981 13.2877 16.2994 13.2865 16.3005 13.2853C16.3028 13.2831 16.305 13.2811 16.3068 13.2793C16.3106 13.2757 16.3134 13.273 16.3154 13.2713C16.3192 13.2678 16.3193 13.2679 16.3155 13.271C16.3078 13.2774 16.284 13.2963 16.2422 13.3242C16.1589 13.3797 16.0016 13.4723 15.7536 13.5715C15.2595 13.7692 14.3873 14 13 14V16ZM18 14V2H16V14H18ZM17 2C16.2929 1.29289 16.2934 1.29238 16.2939 1.29187C16.2941 1.2917 16.2946 1.2912 16.2949 1.29087C16.2956 1.29021 16.2962 1.28956 16.2969 1.28894C16.2981 1.28768 16.2994 1.28648 16.3005 1.28535C16.3028 1.28308 16.305 1.28105 16.3068 1.27926C16.3106 1.27568 16.3134 1.27304 16.3154 1.27129C16.3192 1.26779 16.3193 1.26786 16.3155 1.27104C16.3078 1.27738 16.284 1.29632 16.2422 1.3242C16.1589 1.37972 16.0016 1.47234 15.7536 1.57152C15.2595 1.76917 14.3873 2 13 2V4C14.6127 4 15.7405 3.73083 16.4964 3.42848C16.8734 3.27766 17.1536 3.12028 17.3516 2.9883C17.4504 2.92243 17.5282 2.86325 17.5869 2.8149C17.6162 2.79074 17.6407 2.76932 17.6607 2.75117C17.6707 2.7421 17.6795 2.73384 17.6873 2.72648C17.6911 2.72279 17.6947 2.71933 17.698 2.7161C17.6997 2.71449 17.7012 2.71293 17.7028 2.71143C17.7035 2.71068 17.7043 2.70994 17.705 2.70922C17.7053 2.70886 17.7059 2.70833 17.7061 2.70815C17.7066 2.70763 17.7071 2.70711 17 2ZM13 2C11.7193 2 10.6395 1.57876 9.37139 1.07152C8.13949 0.578762 6.71931 0 5 0V2C6.28069 2 7.36051 2.42124 8.62861 2.92848C9.86051 3.42124 11.2807 4 13 4V2ZM5 0C3.38728 0 2.25949 0.269172 1.50361 0.571523C1.12656 0.722345 0.846401 0.879716 0.648425 1.0117C0.549618 1.07757 0.471831 1.13675 0.413121 1.1851C0.383782 1.20926 0.359255 1.23068 0.33929 1.24883C0.329309 1.2579 0.320473 1.26616 0.312749 1.27352C0.308888 1.27721 0.305305 1.28067 0.301997 1.2839C0.300343 1.28551 0.298757 1.28707 0.29724 1.28857C0.296482 1.28932 0.29574 1.29006 0.295016 1.29078C0.294654 1.29114 0.294122 1.29167 0.293942 1.29185C0.293415 1.29237 0.292893 1.29289 1 2C1.70711 2.70711 1.70659 2.70762 1.70608 2.70813C1.70592 2.7083 1.70541 2.7088 1.70508 2.70913C1.70441 2.70979 1.70376 2.71044 1.70313 2.71106C1.70185 2.71232 1.70064 2.71352 1.69948 2.71465C1.69715 2.71692 1.69505 2.71895 1.69317 2.72074C1.68942 2.72432 1.68656 2.72696 1.68464 2.72871C1.68078 2.73221 1.68067 2.73214 1.68454 2.72896C1.69223 2.72262 1.71601 2.70368 1.75783 2.6758C1.8411 2.62028 1.99844 2.52766 2.24639 2.42848C2.74051 2.23083 3.61272 2 5 2V0ZM0 2V14H2V2H0ZM2 21V14H0V21H2Z" fill="#0A0227"/>
</svg>
