<svg width="24" height="18" viewBox="0 0 24 18" fill="none" xmlns="http://www.w3.org/2000/svg">
<path d="M21 1V0V1ZM8 1V0C7.71164 0 7.43731 0.12448 7.24742 0.341495L8 1ZM1 9L0.247423 8.3415C-0.0824745 8.71852 -0.0824745 9.28148 0.247423 9.6585L1 9ZM8 17L7.24742 17.6585C7.43731 17.8755 7.71164 18 8 18V17ZM18.7071 6.70711C19.0976 6.31658 19.0976 5.68342 18.7071 5.29289C18.3166 4.90237 17.6834 4.90237 17.2929 5.29289L18.7071 6.70711ZM11.2929 11.2929C10.9024 11.6834 10.9024 12.3166 11.2929 12.7071C11.6834 13.0976 12.3166 13.0976 12.7071 12.7071L11.2929 11.2929ZM12.7071 5.29289C12.3166 4.90237 11.6834 4.90237 11.2929 5.29289C10.9024 5.68342 10.9024 6.31658 11.2929 6.70711L12.7071 5.29289ZM17.2929 12.7071C17.6834 13.0976 18.3166 13.0976 18.7071 12.7071C19.0976 12.3166 19.0976 11.6834 18.7071 11.2929L17.2929 12.7071ZM21 0H8V2H21V0ZM7.24742 0.341495L0.247423 8.3415L1.75258 9.6585L8.75258 1.6585L7.24742 0.341495ZM0.247423 9.6585L7.24742 17.6585L8.75258 16.3415L1.75258 8.3415L0.247423 9.6585ZM8 18H21V16H8V18ZM21 18C21.7957 18 22.5587 17.6839 23.1213 17.1213L21.7071 15.7071C21.5196 15.8946 21.2652 16 21 16V18ZM23.1213 17.1213C23.6839 16.5587 24 15.7957 24 15H22C22 15.2652 21.8946 15.5196 21.7071 15.7071L23.1213 17.1213ZM24 15V3H22V15H24ZM24 3C24 2.20435 23.6839 1.44129 23.1213 0.87868L21.7071 2.29289C21.8946 2.48043 22 2.73478 22 3H24ZM23.1213 0.87868C22.5587 0.31607 21.7957 0 21 0V2C21.2652 2 21.5196 2.10536 21.7071 2.29289L23.1213 0.87868ZM17.2929 5.29289L11.2929 11.2929L12.7071 12.7071L18.7071 6.70711L17.2929 5.29289ZM11.2929 6.70711L17.2929 12.7071L18.7071 11.2929L12.7071 5.29289L11.2929 6.70711Z" fill="#0A0227"/>
</svg>
