<svg width="18" height="17" viewBox="0 0 18 17" fill="none" xmlns="http://www.w3.org/2000/svg">
<path d="M2 7.3C1.33726 7.3 0.8 7.83726 0.8 8.5C0.8 9.16274 1.33726 9.7 2 9.7V7.3ZM16 8.5L16.8485 9.34853C17.3172 8.8799 17.3172 8.1201 16.8485 7.65147L16 8.5ZM9.84853 0.651472C9.3799 0.182843 8.6201 0.182843 8.15147 0.651472C7.68284 1.1201 7.68284 1.8799 8.15147 2.34853L9.84853 0.651472ZM8.15147 14.6515C7.68284 15.1201 7.68284 15.8799 8.15147 16.3485C8.6201 16.8172 9.3799 16.8172 9.84853 16.3485L8.15147 14.6515ZM2 9.7H16V7.3H2V9.7ZM8.15147 2.34853L15.1515 9.34853L16.8485 7.65147L9.84853 0.651472L8.15147 2.34853ZM15.1515 7.65147L8.15147 14.6515L9.84853 16.3485L16.8485 9.34853L15.1515 7.65147Z" fill="white"/>
</svg>
