<svg width="20" height="14" viewBox="0 0 20 14" fill="none" xmlns="http://www.w3.org/2000/svg">
<path d="M1 6C0.447715 6 0 6.44772 0 7C0 7.55228 0.447715 8 1 8V6ZM19 8C19.5523 8 20 7.55228 20 7C20 6.44772 19.5523 6 19 6V8ZM1 0C0.447715 0 0 0.447715 0 1C0 1.55228 0.447715 2 1 2V0ZM19 2C19.5523 2 20 1.55228 20 1C20 0.447715 19.5523 0 19 0V2ZM1 12C0.447715 12 0 12.4477 0 13C0 13.5523 0.447715 14 1 14V12ZM19 14C19.5523 14 20 13.5523 20 13C20 12.4477 19.5523 12 19 12V14ZM1 8H19V6H1V8ZM1 2H19V0H1V2ZM1 14H19V12H1V14Z" fill="#0A0227"/>
</svg>
