<svg width="18" height="20" viewBox="0 0 18 20" fill="none" xmlns="http://www.w3.org/2000/svg">
<path d="M1 6C0.447715 6 0 6.44772 0 7C0 7.55228 0.447715 8 1 8V6ZM17 8C17.5523 8 18 7.55228 18 7C18 6.44772 17.5523 6 17 6V8ZM1 12C0.447715 12 0 12.4477 0 13C0 13.5523 0.447715 14 1 14V12ZM17 14C17.5523 14 18 13.5523 18 13C18 12.4477 17.5523 12 17 12V14ZM7.99388 1.11043C8.05487 0.561525 7.65934 0.0671059 7.11043 0.00611627C6.56152 -0.0548733 6.06711 0.340662 6.00612 0.889568L7.99388 1.11043ZM4.00612 18.8896C3.94513 19.4385 4.34066 19.9329 4.88957 19.9939C5.43848 20.0549 5.93289 19.6593 5.99388 19.1104L4.00612 18.8896ZM13.9939 1.11043C14.0549 0.561525 13.6593 0.0671059 13.1104 0.00611627C12.5615 -0.0548733 12.0671 0.340662 12.0061 0.889568L13.9939 1.11043ZM10.0061 18.8896C9.94513 19.4385 10.3407 19.9329 10.8896 19.9939C11.4385 20.0549 11.9329 19.6593 11.9939 19.1104L10.0061 18.8896ZM1 8H17V6H1V8ZM1 14H17V12H1V14ZM6.00612 0.889568L4.00612 18.8896L5.99388 19.1104L7.99388 1.11043L6.00612 0.889568ZM12.0061 0.889568L10.0061 18.8896L11.9939 19.1104L13.9939 1.11043L12.0061 0.889568Z" fill="#0A0227"/>
</svg>
