<svg width="20" height="22" viewBox="0 0 20 22" fill="none" xmlns="http://www.w3.org/2000/svg">
<path d="M1 8L0.386059 7.21065C0.142473 7.4001 0 7.69141 0 8H1ZM10 1L10.6139 0.210648C10.2528 -0.0702159 9.74717 -0.0702159 9.38606 0.210648L10 1ZM19 8H20C20 7.69141 19.8575 7.4001 19.6139 7.21065L19 8ZM1 19H0H1ZM6 21C6 21.5523 6.44772 22 7 22C7.55228 22 8 21.5523 8 21H6ZM7 11V10C6.44772 10 6 10.4477 6 11H7ZM13 11H14C14 10.4477 13.5523 10 13 10V11ZM12 21C12 21.5523 12.4477 22 13 22C13.5523 22 14 21.5523 14 21H12ZM1.61394 8.78935L10.6139 1.78935L9.38606 0.210648L0.386059 7.21065L1.61394 8.78935ZM9.38606 1.78935L18.3861 8.78935L19.6139 7.21065L10.6139 0.210648L9.38606 1.78935ZM18 8V19H20V8H18ZM18 19C18 19.2652 17.8946 19.5196 17.7071 19.7071L19.1213 21.1213C19.6839 20.5587 20 19.7957 20 19H18ZM17.7071 19.7071C17.5196 19.8946 17.2652 20 17 20V22C17.7957 22 18.5587 21.6839 19.1213 21.1213L17.7071 19.7071ZM17 20H3V22H17V20ZM3 20C2.73478 20 2.48043 19.8946 2.29289 19.7071L0.87868 21.1213C1.44129 21.6839 2.20435 22 3 22V20ZM2.29289 19.7071C2.10536 19.5196 2 19.2652 2 19H0C0 19.7957 0.31607 20.5587 0.87868 21.1213L2.29289 19.7071ZM2 19V8H0V19H2ZM8 21V11H6V21H8ZM7 12H13V10H7V12ZM12 11V21H14V11H12Z" fill="#0A0227"/>
</svg>
