<svg width="22" height="22" viewBox="0 0 22 22" fill="none" xmlns="http://www.w3.org/2000/svg">
<path d="M9.74432 11.3346C9.41352 10.8923 8.78683 10.802 8.34458 11.1328C7.90233 11.4636 7.81199 12.0903 8.14279 12.5325L9.74432 11.3346ZM16.4836 12.4736L15.7765 11.7665L15.7763 11.7666L16.4836 12.4736ZM19.4836 9.47356L20.1907 10.1807C20.1948 10.1766 20.1988 10.1724 20.2028 10.1683L19.4836 9.47356ZM12.4136 2.40356L11.7188 1.68427C11.7154 1.68762 11.7119 1.69099 11.7085 1.69439L12.4136 2.40356ZM9.98852 3.40439C9.59686 3.79378 9.59501 4.42694 9.98439 4.8186C10.3738 5.21026 11.0069 5.21211 11.3986 4.82272L9.98852 3.40439ZM12.1428 10.5325C12.4736 10.9748 13.1003 11.0651 13.5425 10.7343C13.9848 10.4035 14.0751 9.77683 13.7443 9.33458L12.1428 10.5325ZM5.40356 9.39356L6.11067 10.1007L6.11079 10.1005L5.40356 9.39356ZM2.40356 12.3936L1.69645 11.6865C1.69236 11.6905 1.6883 11.6947 1.68427 11.6988L2.40356 12.3936ZM9.47356 19.4636L10.1683 20.1828C10.1724 20.1788 10.1766 20.1748 10.1807 20.1707L9.47356 19.4636ZM11.8907 18.4607C12.2812 18.0701 12.2812 17.437 11.8907 17.0465C11.5001 16.6559 10.867 16.6559 10.4765 17.0465L11.8907 18.4607ZM8.14279 12.5325C8.65814 13.2215 9.31562 13.7916 10.0707 14.2041L11.0296 12.4489C10.5262 12.1739 10.0879 11.7939 9.74432 11.3346L8.14279 12.5325ZM10.0707 14.2041C10.8257 14.6166 11.6606 14.8619 12.5188 14.9233L12.6616 12.9284C12.0895 12.8875 11.5329 12.7239 11.0296 12.4489L10.0707 14.2041ZM12.5188 14.9233C13.3769 14.9848 14.2383 14.861 15.0444 14.5603L14.3454 12.6864C13.808 12.8869 13.2338 12.9694 12.6616 12.9284L12.5188 14.9233ZM15.0444 14.5603C15.8505 14.2596 16.5825 13.789 17.1908 13.1805L15.7763 11.7666C15.3708 12.1722 14.8828 12.4859 14.3454 12.6864L15.0444 14.5603ZM17.1907 13.1807L20.1907 10.1807L18.7765 8.76645L15.7765 11.7665L17.1907 13.1807ZM20.2028 10.1683C21.2958 9.03666 21.9006 7.52104 21.8869 5.94786L19.887 5.96524C19.8961 7.01403 19.4929 8.02444 18.7643 8.77885L20.2028 10.1683ZM21.8869 5.94786C21.8732 4.37468 21.2422 2.86981 20.1298 1.75736L18.7155 3.17157C19.4572 3.91321 19.8779 4.91646 19.887 5.96524L21.8869 5.94786ZM20.1298 1.75736C19.0173 0.644911 17.5124 0.0138973 15.9393 0.000226796L15.9219 2.00015C16.9707 2.00926 17.9739 2.42994 18.7155 3.17157L20.1298 1.75736ZM15.9393 0.000226796C14.3661 -0.0134437 12.8505 0.591323 11.7188 1.68427L13.1083 3.12285C13.8627 2.39421 14.8731 1.99104 15.9219 2.00015L15.9393 0.000226796ZM11.7085 1.69439L9.98852 3.40439L11.3986 4.82272L13.1186 3.11272L11.7085 1.69439ZM13.7443 9.33458C13.229 8.64563 12.5715 8.07556 11.8165 7.66305L10.8576 9.41819C11.3609 9.69319 11.7992 10.0732 12.1428 10.5325L13.7443 9.33458ZM11.8165 7.66305C11.0614 7.25054 10.2265 7.00524 9.36834 6.94378L9.22547 8.93867C9.79759 8.97965 10.3542 9.14318 10.8576 9.41819L11.8165 7.66305ZM9.36834 6.94378C8.51017 6.88232 7.64882 7.00614 6.84271 7.30684L7.54172 9.18071C8.07912 8.98024 8.65336 8.8977 9.22547 8.93867L9.36834 6.94378ZM6.84271 7.30684C6.0366 7.60755 5.30459 8.0781 4.69632 8.68658L6.11079 10.1005C6.5163 9.69488 7.00431 9.38118 7.54172 9.18071L6.84271 7.30684ZM4.69645 8.68645L1.69645 11.6865L3.11067 13.1007L6.11067 10.1007L4.69645 8.68645ZM1.68427 11.6988C0.591322 12.8305 -0.0134437 14.3461 0.000226796 15.9193L2.00015 15.9019C1.99104 14.8531 2.39422 13.8427 3.12285 13.0883L1.68427 11.6988ZM0.000226796 15.9193C0.0138973 17.4924 0.644911 18.9973 1.75736 20.1098L3.17157 18.6955C2.42994 17.9539 2.00926 16.9507 2.00015 15.9019L0.000226796 15.9193ZM1.75736 20.1098C2.86981 21.2222 4.37468 21.8532 5.94786 21.8669L5.96524 19.867C4.91646 19.8579 3.91321 19.4372 3.17157 18.6955L1.75736 20.1098ZM5.94786 21.8669C7.52104 21.8806 9.03666 21.2758 10.1683 20.1828L8.77885 18.7443C8.02444 19.4729 7.01403 19.8761 5.96524 19.867L5.94786 21.8669ZM10.1807 20.1707L11.8907 18.4607L10.4765 17.0465L8.76645 18.7565L10.1807 20.1707Z" fill="#0A0227"/>
</svg>
