<svg width="20" height="16" viewBox="0 0 20 16" fill="none" xmlns="http://www.w3.org/2000/svg">
<path d="M7 3H20V1H7V3ZM7 9H20V7H7V9ZM7 15H20V13H7V15ZM2 2V4C3.10457 4 4 3.10457 4 2H2ZM2 2H0C0 3.10457 0.89543 4 2 4V2ZM2 2V0C0.89543 0 0 0.89543 0 2H2ZM2 2H4C4 0.89543 3.10457 0 2 0V2ZM2 8V10C3.10457 10 4 9.10457 4 8H2ZM2 8H0C0 9.10457 0.89543 10 2 10V8ZM2 8V6C0.89543 6 0 6.89543 0 8H2ZM2 8H4C4 6.89543 3.10457 6 2 6V8ZM2 14V16C3.10457 16 4 15.1046 4 14H2ZM2 14H0C0 15.1046 0.89543 16 2 16V14ZM2 14V12C0.89543 12 0 12.8954 0 14H2ZM2 14H4C4 12.8954 3.10457 12 2 12V14Z" fill="#0A0227"/>
</svg>
