<svg width="22" height="18" viewBox="0 0 22 18" fill="none" xmlns="http://www.w3.org/2000/svg">
<path d="M21 9H15L13 12H9L7 9H1V15C1 15.5304 1.21071 16.0391 1.58579 16.4142C1.96086 16.7893 2.46957 17 3 17H19C19.5304 17 20.0391 16.7893 20.4142 16.4142C20.7893 16.0391 21 15.5304 21 15V9Z" fill="#0A0227"/>
<path d="M21 9H22C22 8.84456 21.9638 8.69126 21.8942 8.55227L21 9ZM15 9V8C14.6656 8 14.3534 8.1671 14.1679 8.4453L15 9ZM13 12V13C13.3344 13 13.6466 12.8329 13.8321 12.5547L13 12ZM9 12L8.16795 12.5547C8.35342 12.8329 8.66565 13 9 13V12ZM7 9L7.83205 8.4453C7.64658 8.1671 7.33435 8 7 8V9ZM1 9L0.105833 8.55227C0.0362364 8.69126 0 8.84456 0 9H1ZM4.45 2.11L5.34417 2.55773L5.34553 2.555L4.45 2.11ZM1 15H0H1ZM17.55 2.11L16.6545 2.555L16.6558 2.55773L17.55 2.11ZM15.76 1L15.7605 0H15.76V1ZM6.24 1V-1.19209e-07L6.23947 1.19209e-07L6.24 1ZM21 8H15V10H21V8ZM14.1679 8.4453L12.1679 11.4453L13.8321 12.5547L15.8321 9.5547L14.1679 8.4453ZM13 11H9V13H13V11ZM9.83205 11.4453L7.83205 8.4453L6.16795 9.5547L8.16795 12.5547L9.83205 11.4453ZM7 8H1V10H7V8ZM3.55583 1.66227L0.105833 8.55227L1.89417 9.44773L5.34417 2.55773L3.55583 1.66227ZM0 9V15H2V9H0ZM0 15C0 15.7956 0.31607 16.5587 0.87868 17.1213L2.29289 15.7071C2.10536 15.5196 2 15.2652 2 15H0ZM0.87868 17.1213C1.44129 17.6839 2.20435 18 3 18V16C2.73478 16 2.48043 15.8946 2.29289 15.7071L0.87868 17.1213ZM3 18H19V16H3V18ZM19 18C19.7957 18 20.5587 17.6839 21.1213 17.1213L19.7071 15.7071C19.5196 15.8946 19.2652 16 19 16V18ZM21.1213 17.1213C21.6839 16.5587 22 15.7957 22 15H20C20 15.2652 19.8946 15.5196 19.7071 15.7071L21.1213 17.1213ZM22 15V9H20V15H22ZM21.8942 8.55227L18.4442 1.66227L16.6558 2.55773L20.1058 9.44773L21.8942 8.55227ZM18.4455 1.665C18.1972 1.16518 17.8143 0.744557 17.34 0.450419L16.2859 2.15014C16.4441 2.24818 16.5717 2.38839 16.6545 2.555L18.4455 1.665ZM17.34 0.450419C16.8656 0.156282 16.3187 0.000296295 15.7605 1.19209e-07L15.7595 2C15.9455 2.0001 16.1278 2.05209 16.2859 2.15014L17.34 0.450419ZM15.76 0H6.24V2H15.76V0ZM6.23947 1.19209e-07C5.68134 0.000296295 5.13437 0.156283 4.66004 0.450419L5.71405 2.15014C5.87216 2.05209 6.05449 2.0001 6.24053 2L6.23947 1.19209e-07ZM4.66004 0.450419C4.18571 0.744556 3.80284 1.16518 3.55447 1.665L5.34553 2.555C5.42832 2.38839 5.55594 2.24819 5.71405 2.15014L4.66004 0.450419Z" fill="#0A0227"/>
</svg>
