<svg width="18" height="17" viewBox="0 0 18 17" fill="none" xmlns="http://www.w3.org/2000/svg">
<path d="M17.2498 0.484375H15.8435C15.7404 0.484375 15.656 0.56875 15.656 0.671875V12.8125H4.2654V11.1016C4.2654 10.9445 4.08259 10.8555 3.96071 10.9539L0.634929 13.5789C0.612519 13.5964 0.594395 13.6189 0.58193 13.6444C0.569466 13.67 0.562988 13.6981 0.562988 13.7266C0.562988 13.755 0.569466 13.7831 0.58193 13.8087C0.594395 13.8343 0.612519 13.8567 0.634929 13.8742L3.96071 16.4992C4.08493 16.5977 4.2654 16.5086 4.2654 16.3516V14.5938H15.9373C16.7646 14.5938 17.4373 13.9211 17.4373 13.0938V0.671875C17.4373 0.56875 17.3529 0.484375 17.2498 0.484375Z" fill="#0A0227"/>
</svg>
