<svg width="18" height="22" viewBox="0 0 18 22" fill="none" xmlns="http://www.w3.org/2000/svg">
<path d="M2 11C2 10.4477 1.55228 10 1 10C0.447715 10 0 10.4477 0 11H2ZM1 19H0H1ZM18 11C18 10.4477 17.5523 10 17 10C16.4477 10 16 10.4477 16 11H18ZM12.2929 5.70711C12.6834 6.09763 13.3166 6.09763 13.7071 5.70711C14.0976 5.31658 14.0976 4.68342 13.7071 4.29289L12.2929 5.70711ZM9 1L9.70711 0.292893C9.31658 -0.0976311 8.68342 -0.0976311 8.29289 0.292893L9 1ZM4.29289 4.29289C3.90237 4.68342 3.90237 5.31658 4.29289 5.70711C4.68342 6.09763 5.31658 6.09763 5.70711 5.70711L4.29289 4.29289ZM8 14C8 14.5523 8.44772 15 9 15C9.55229 15 10 14.5523 10 14H8ZM0 11V19H2V11H0ZM0 19C0 19.7957 0.31607 20.5587 0.87868 21.1213L2.29289 19.7071C2.10536 19.5196 2 19.2652 2 19H0ZM0.87868 21.1213C1.44129 21.6839 2.20435 22 3 22V20C2.73478 20 2.48043 19.8946 2.29289 19.7071L0.87868 21.1213ZM3 22H15V20H3V22ZM15 22C15.7957 22 16.5587 21.6839 17.1213 21.1213L15.7071 19.7071C15.5196 19.8946 15.2652 20 15 20V22ZM17.1213 21.1213C17.6839 20.5587 18 19.7957 18 19H16C16 19.2652 15.8946 19.5196 15.7071 19.7071L17.1213 21.1213ZM18 19V11H16V19H18ZM13.7071 4.29289L9.70711 0.292893L8.29289 1.70711L12.2929 5.70711L13.7071 4.29289ZM8.29289 0.292893L4.29289 4.29289L5.70711 5.70711L9.70711 1.70711L8.29289 0.292893ZM8 1V14H10V1H8Z" fill="#0A0227"/>
</svg>
