<svg width="24" height="12" viewBox="0 0 24 12" fill="none" xmlns="http://www.w3.org/2000/svg">
<path d="M15 0C14.4477 0 14 0.447715 14 1C14 1.55228 14.4477 2 15 2V0ZM18 1V0V1ZM18 11V10V11ZM15 10C14.4477 10 14 10.4477 14 11C14 11.5523 14.4477 12 15 12V10ZM9 12C9.55229 12 10 11.5523 10 11C10 10.4477 9.55229 10 9 10V12ZM6 11V10V11ZM1 6H0H1ZM6 1V0V1ZM9 2C9.55229 2 10 1.55228 10 1C10 0.447715 9.55229 0 9 0V2ZM8 5C7.44772 5 7 5.44772 7 6C7 6.55228 7.44772 7 8 7V5ZM16 7C16.5523 7 17 6.55228 17 6C17 5.44772 16.5523 5 16 5V7ZM15 2H18V0H15V2ZM18 2C18.5253 2 19.0454 2.10346 19.5307 2.30448L20.2961 0.456723C19.5681 0.155195 18.7879 0 18 0V2ZM19.5307 2.30448C20.016 2.5055 20.457 2.80014 20.8284 3.17157L22.2426 1.75736C21.6855 1.20021 21.0241 0.758251 20.2961 0.456723L19.5307 2.30448ZM20.8284 3.17157C21.1999 3.54301 21.4945 3.98396 21.6955 4.46927L23.5433 3.7039C23.2417 2.97595 22.7998 2.31451 22.2426 1.75736L20.8284 3.17157ZM21.6955 4.46927C21.8965 4.95457 22 5.47471 22 6H24C24 5.21207 23.8448 4.43185 23.5433 3.7039L21.6955 4.46927ZM22 6C22 6.52529 21.8965 7.04543 21.6955 7.53073L23.5433 8.2961C23.8448 7.56815 24 6.78793 24 6H22ZM21.6955 7.53073C21.4945 8.01604 21.1999 8.45699 20.8284 8.82843L22.2426 10.2426C22.7998 9.68549 23.2417 9.02405 23.5433 8.2961L21.6955 7.53073ZM20.8284 8.82843C20.457 9.19986 20.016 9.4945 19.5307 9.69552L20.2961 11.5433C21.0241 11.2417 21.6855 10.7998 22.2426 10.2426L20.8284 8.82843ZM19.5307 9.69552C19.0454 9.89654 18.5253 10 18 10V12C18.7879 12 19.5681 11.8448 20.2961 11.5433L19.5307 9.69552ZM18 10H15V12H18V10ZM9 10H6V12H9V10ZM6 10C5.47471 10 4.95457 9.89654 4.46927 9.69552L3.7039 11.5433C4.43185 11.8448 5.21207 12 6 12V10ZM4.46927 9.69552C3.98396 9.4945 3.54301 9.19986 3.17157 8.82843L1.75736 10.2426C2.31451 10.7998 2.97595 11.2417 3.7039 11.5433L4.46927 9.69552ZM3.17157 8.82843C2.42143 8.07828 2 7.06087 2 6H0C0 7.5913 0.632141 9.11742 1.75736 10.2426L3.17157 8.82843ZM2 6C2 4.93913 2.42143 3.92172 3.17157 3.17157L1.75736 1.75736C0.632141 2.88258 0 4.4087 0 6H2ZM3.17157 3.17157C3.92172 2.42143 4.93913 2 6 2V0C4.4087 0 2.88258 0.632141 1.75736 1.75736L3.17157 3.17157ZM6 2H9V0H6V2ZM8 7H16V5H8V7Z" fill="#0A0227"/>
</svg>
