<svg width="18" height="18" viewBox="0 0 18 18" fill="none" xmlns="http://www.w3.org/2000/svg">
<path d="M10.0003 6.14265C10.0003 5.59036 9.55256 5.14265 9.00028 5.14265C8.44799 5.14265 8.00028 5.59036 8.00028 6.14265H10.0003ZM8.00028 11.8569C8.00028 12.4092 8.44799 12.8569 9.00028 12.8569C9.55256 12.8569 10.0003 12.4092 10.0003 11.8569H8.00028ZM6.14314 7.99979C5.59085 7.99979 5.14314 8.44751 5.14314 8.99979C5.14314 9.55208 5.59085 9.99979 6.14314 9.99979V7.99979ZM11.8574 9.99979C12.4097 9.99979 12.8574 9.55208 12.8574 8.99979C12.8574 8.44751 12.4097 7.99979 11.8574 7.99979V9.99979ZM15.1431 8.99979C15.1431 12.3924 12.3929 15.1426 9.00028 15.1426V17.1426C13.4975 17.1426 17.1431 13.497 17.1431 8.99979H15.1431ZM9.00028 15.1426C5.60767 15.1426 2.85742 12.3924 2.85742 8.99979H0.857422C0.857422 13.497 4.5031 17.1426 9.00028 17.1426V15.1426ZM2.85742 8.99979C2.85742 5.60718 5.60767 2.85693 9.00028 2.85693V0.856934C4.5031 0.856934 0.857422 4.50261 0.857422 8.99979H2.85742ZM9.00028 2.85693C12.3929 2.85693 15.1431 5.60718 15.1431 8.99979H17.1431C17.1431 4.50261 13.4975 0.856934 9.00028 0.856934V2.85693ZM8.00028 6.14265V11.8569H10.0003V6.14265H8.00028ZM6.14314 9.99979H11.8574V7.99979H6.14314V9.99979Z" fill="#0A0227"/>
</svg>
