<svg width="20" height="20" viewBox="0 0 20 20" fill="none" xmlns="http://www.w3.org/2000/svg">
<mask id="path-1-inside-1_1232_8438" fill="white">
<path d="M19.3933 11.9061L11.9135 19.3879C11.7197 19.582 11.4896 19.7359 11.2363 19.8409C10.983 19.9459 10.7115 20 10.4373 20C10.1631 20 9.89163 19.9459 9.63835 19.8409C9.38506 19.7359 9.15495 19.582 8.96118 19.3879L0 10.4348V0H10.4321L19.3933 8.96352C19.7819 9.35454 20 9.88349 20 10.4348C20 10.9862 19.7819 11.5151 19.3933 11.9061Z"/>
<path d="M6 5C6 5.55228 5.55228 6 5 6C4.44772 6 4 5.55228 4 5C4 4.44772 4.44772 4 5 4C5.55228 4 6 4.44772 6 5Z"/>
</mask>
<path d="M19.3933 11.9061L20.8077 13.3202L20.8119 13.316L19.3933 11.9061ZM11.9135 19.3879L10.4991 17.9739L10.4983 17.9747L11.9135 19.3879ZM8.96118 19.3879L10.3764 17.9747L10.3748 17.9731L8.96118 19.3879ZM0 10.4348H-2C-2 10.9656 -1.78904 11.4746 -1.41357 11.8497L0 10.4348ZM0 0V-2C-1.10457 -2 -2 -1.10457 -2 0L0 0ZM10.4321 0L11.8465 -1.41403C11.4714 -1.78921 10.9626 -2 10.4321 -2V0ZM19.3933 8.96352L20.8119 7.5537L20.8077 7.54949L19.3933 8.96352ZM17.9789 10.4921L10.4991 17.9739L13.3279 20.8019L20.8077 13.3202L17.9789 10.4921ZM10.4983 17.9747C10.4902 17.9827 10.4807 17.9891 10.4702 17.9934L12.0023 21.6884C12.4985 21.4827 12.9492 21.1812 13.3286 20.8012L10.4983 17.9747ZM10.4702 17.9934C10.4598 17.9978 10.4486 18 10.4373 18V22C10.9744 22 11.5062 21.8941 12.0023 21.6884L10.4702 17.9934ZM10.4373 18C10.426 18 10.4148 17.9978 10.4044 17.9934L8.8723 21.6884C9.36842 21.8941 9.90023 22 10.4373 22V18ZM10.4044 17.9934C10.3939 17.9891 10.3844 17.9827 10.3764 17.9747L7.54599 20.8012C7.92549 21.1812 8.37617 21.4827 8.8723 21.6884L10.4044 17.9934ZM10.3748 17.9731L1.41357 9.01998L-1.41357 11.8497L7.5476 20.8028L10.3748 17.9731ZM2 10.4348V0H-2V10.4348H2ZM0 2H10.4321V-2H0V2ZM9.01771 1.41403L17.9789 10.3776L20.8077 7.54949L11.8465 -1.41403L9.01771 1.41403ZM17.9747 10.3733C17.9908 10.3896 18 10.4117 18 10.4348H22C22 9.35529 21.5729 8.31949 20.8119 7.55371L17.9747 10.3733ZM18 10.4348C18 10.458 17.9908 10.4801 17.9747 10.4963L20.8119 13.316C21.5729 12.5502 22 11.5144 22 10.4348H18ZM4 5C4 4.44772 4.44772 4 5 4V8C6.65685 8 8 6.65685 8 5H4ZM5 4C5.55228 4 6 4.44772 6 5H2C2 6.65685 3.34315 8 5 8V4ZM6 5C6 5.55228 5.55228 6 5 6V2C3.34315 2 2 3.34315 2 5H6ZM5 6C4.44772 6 4 5.55228 4 5H8C8 3.34315 6.65685 2 5 2V6Z" fill="#0A0227" mask="url(#path-1-inside-1_1232_8438)"/>
</svg>
