<svg width="20" height="22" viewBox="0 0 20 22" fill="none" xmlns="http://www.w3.org/2000/svg">
<path d="M1 4C0.447715 4 0 4.44772 0 5C0 5.55228 0.447715 6 1 6V4ZM19 6C19.5523 6 20 5.55228 20 5C20 4.44772 19.5523 4 19 4V6ZM17 5H18C18 4.44772 17.5523 4 17 4V5ZM3 19H2H3ZM3 5V4C2.44772 4 2 4.44772 2 5H3ZM5 5C5 5.55228 5.44772 6 6 6C6.55228 6 7 5.55228 7 5H5ZM8 1V0V1ZM12 1V0V1ZM13 5C13 5.55228 13.4477 6 14 6C14.5523 6 15 5.55228 15 5H13ZM1 6H19V4H1V6ZM16 5V19H18V5H16ZM16 19C16 19.2652 15.8946 19.5196 15.7071 19.7071L17.1213 21.1213C17.6839 20.5587 18 19.7957 18 19H16ZM15.7071 19.7071C15.5196 19.8946 15.2652 20 15 20V22C15.7957 22 16.5587 21.6839 17.1213 21.1213L15.7071 19.7071ZM15 20H5V22H15V20ZM5 20C4.73478 20 4.48043 19.8946 4.29289 19.7071L2.87868 21.1213C3.44129 21.6839 4.20435 22 5 22V20ZM4.29289 19.7071C4.10536 19.5196 4 19.2652 4 19H2C2 19.7957 2.31607 20.5587 2.87868 21.1213L4.29289 19.7071ZM4 19V5H2V19H4ZM3 6H17V4H3V6ZM7 5V3H5V5H7ZM7 3C7 2.73478 7.10536 2.48043 7.29289 2.29289L5.87868 0.87868C5.31607 1.44129 5 2.20435 5 3H7ZM7.29289 2.29289C7.48043 2.10536 7.73478 2 8 2V0C7.20435 0 6.44129 0.31607 5.87868 0.87868L7.29289 2.29289ZM8 2H12V0H8V2ZM12 2C12.2652 2 12.5196 2.10536 12.7071 2.29289L14.1213 0.87868C13.5587 0.31607 12.7956 0 12 0V2ZM12.7071 2.29289C12.8946 2.48043 13 2.73478 13 3H15C15 2.20435 14.6839 1.44129 14.1213 0.87868L12.7071 2.29289ZM13 3V5H15V3H13Z" fill="#0A0227"/>
</svg>
