<svg width="1200" height="250" viewBox="0 0 1200 250" fill="none" xmlns="http://www.w3.org/2000/svg">
<g clip-path="url(#clip0_999_9060)">
<path d="M861.404 176.07L875.046 182.306" stroke="#7CD1D2" stroke-width="2" stroke-linecap="round" stroke-linejoin="round"/>
<rect width="1200" height="250" fill="white"/>
<path d="M1134.5 251.086C1128.82 251.261 1121.91 251.279 1113.96 251.086L629.851 251.086C598.684 237.253 530.351 187.086 586.351 116.586C609.4 90.3419 634.185 84.6519 656 87.7736C681.981 91.4913 703.748 107.707 713.351 116.586C834.689 224.239 1031.2 249.077 1113.96 251.086H1134.5Z" fill="#CAFFFA"/>
<path d="M26.9997 -11C31.3372 -11.1338 36.3767 -11.2027 42.0447 -11.1794L530 -17C561.166 -3.16663 629.5 46.9999 573.5 117.5C523 175 464.166 133.833 446.5 117.5C322.398 7.39435 121.096 -10.8552 42.0447 -11.1794L26.9997 -11Z" fill="#CAFFFA"/>
<path d="M582.887 223.924C599.813 223.259 616.285 218.262 630.727 209.411C645.17 200.561 657.1 188.153 665.377 173.373C673.654 158.594 678 141.939 678 125H579L520.809 44.9073C507.105 54.8637 496.185 68.1697 489.094 83.5527C482.002 98.9356 478.976 115.881 480.305 132.767C481.634 149.654 487.274 165.917 496.685 180.001" stroke="#AEC1ED" stroke-width="8" stroke-linecap="round" stroke-linejoin="round"/>
<path d="M582.887 223.924C599.813 223.259 616.285 218.262 630.727 209.411C645.17 200.561 657.1 188.153 665.377 173.374C673.654 158.594 678 141.939 678 125H579L520.809 44.9073C507.105 54.8638 496.185 68.1698 489.094 83.5527C482.002 98.9356 478.976 115.881 480.305 132.767C481.634 149.654 487.274 165.917 496.685 180.001" stroke="#8DF4EB" stroke-width="8" stroke-linecap="round" stroke-linejoin="round"/>
<path d="M1200 112.5C995.192 138.774 861.33 50.0937 820 0H1200V112.5Z" fill="url(#paint0_linear_999_9060)"/>
<path d="M919.273 176.538C1037.27 224.538 1155.44 219.538 1199.77 211.038V235.038C1072.57 252.638 952.773 218.038 908.773 198.538C902.273 196.705 890.173 190.238 893.773 179.038C897.373 167.838 912.273 172.705 919.273 176.538Z" fill="#80E3DB"/>
<path d="M1159.77 209.038C1157.74 197.5 1145 195 1137.77 195.538C953.272 198.538 812.272 99.0383 809.272 97.0383C806.272 95.0383 793.272 85.0383 782.772 99.0383C774.372 110.238 781.939 120.038 786.772 123.538C811.173 142.338 854.606 163.705 873.272 172.038C984.473 226.438 1099.61 232.372 1143.27 228.538C1149.77 227.705 1162.17 222.638 1159.77 209.038Z" fill="#AEF4EE"/>
<path d="M0.272471 146.5C205.081 120.226 338.943 208.906 380.272 259L0.272461 259L0.272471 146.5Z" fill="url(#paint1_linear_999_9060)"/>
<path d="M281 82.4617C163 34.4617 44.833 39.4617 0.499607 47.9617L0.499609 23.9616C127.7 6.36166 247.5 40.9617 291.5 60.4617C298 62.295 310.1 68.7617 306.5 79.9617C302.9 91.1617 288 86.2951 281 82.4617Z" fill="#80E3DB"/>
<path d="M40.5 49.9616C42.5361 61.4998 55.2725 63.9998 62.5 63.4616C247 60.4616 388 159.962 391 161.962C394 163.962 407 173.962 417.5 159.962C425.9 148.762 418.333 138.962 413.5 135.462C389.1 116.662 345.667 95.2949 327 86.9616C215.8 32.5616 100.667 26.6283 57 30.4616C50.5 31.2949 38.1 36.3616 40.5 49.9616Z" fill="#AEF4EE"/>
<circle cx="579" cy="125" r="97.5" fill="white" stroke="#80E3DB" stroke-width="3"/>
<path d="M1046.77 174.038C1107.57 183.638 1174.44 178.038 1200.27 174.038V103.538C1098.27 123.538 992.273 99.0381 987.273 97.0381C982.273 95.0381 946.773 88.0381 943.273 122.038C939.773 156.038 970.773 162.038 1046.77 174.038Z" fill="#BBE8FF"/>
<path d="M1049.27 132.538C971.273 123.738 879.439 78.5382 843.273 57.0382C822.873 45.7868 825.773 28.6835 829.773 21.5382C840.573 1.53819 861.939 9.87153 871.273 16.5382C974.273 74.0382 1031.77 80.5382 1058.27 84.0382C1079.47 86.8382 1081.44 103.872 1079.77 112.038C1076.17 130.838 1057.94 133.538 1049.27 132.538Z" fill="#DCF3FF"/>
<path d="M579 140.962C574.863 140.962 571.577 137.704 571.577 133.767C571.577 129.83 574.863 126.573 579 126.573C583.136 126.573 586.423 129.83 586.423 133.767C586.423 137.704 583.136 140.962 579 140.962ZM579 103.035C576.262 103.035 573.608 103.38 571.077 104.023V95.9987C571.077 89.6118 565.774 84.5 559.315 84.5C552.857 84.5 547.554 89.6119 547.554 95.9987V132.024C547.521 132.594 547.5 133.176 547.5 133.767C547.5 150.777 561.64 164.5 579 164.5C596.36 164.5 610.5 150.777 610.5 133.767C610.5 116.758 596.36 103.035 579 103.035Z" fill="white" stroke="#80E3DB" stroke-width="3"/>
<path d="M704.277 78.5H596.977C599.337 71.5457 605.844 66.5667 613.477 66.5667C616.03 66.5667 618.452 67.1222 620.635 68.1197L622.148 68.8112L622.679 67.235C626.165 56.9054 635.819 49.5 647.159 49.5C657.904 49.5 667.134 56.1466 671.04 65.6321L671.782 67.4358L673.335 66.2549C676.602 63.7699 680.657 62.3 685.052 62.3C694.612 62.3 702.593 69.2689 704.277 78.5Z" fill="white" stroke="#DCF3FF" stroke-width="3"/>
<path d="M968.254 158.5H885.013C886.937 153.424 891.802 149.833 897.482 149.833C899.436 149.833 901.289 150.257 902.959 151.018L904.469 151.706L905.002 150.134C907.69 142.193 915.136 136.5 923.882 136.5C932.168 136.5 939.287 141.609 942.3 148.902L943.042 150.699L944.592 149.524C947.098 147.624 950.209 146.5 953.582 146.5C960.781 146.5 966.813 151.635 968.254 158.5Z" fill="white" stroke="#DCF3FF" stroke-width="3"/>
<path d="M318.271 161.5H221.986C224.145 155.345 229.908 150.967 236.646 150.967C238.923 150.967 241.083 151.465 243.029 152.36L244.547 153.058L245.078 151.474C248.201 142.164 256.846 135.5 266.991 135.5C276.602 135.5 284.866 141.481 288.366 150.03L289.108 151.844L290.665 150.653C293.584 148.42 297.204 147.1 301.128 147.1C309.603 147.1 316.701 153.275 318.271 161.5Z" fill="white" stroke="#DCF3FF" stroke-width="3"/>
<path d="M533.268 158.5H444.988C446.998 152.873 452.229 148.9 458.314 148.9C460.389 148.9 462.356 149.359 464.131 150.185L465.658 150.895L466.187 149.297C469.05 140.662 476.965 134.5 486.231 134.5C495.012 134.5 502.576 140.03 505.783 147.958L506.526 149.794L508.092 148.581C510.757 146.518 514.06 145.3 517.638 145.3C525.32 145.3 531.786 150.939 533.268 158.5Z" fill="white" stroke="#DCF3FF" stroke-width="3"/>
<path d="M153.5 84.9617C92.6997 75.3617 25.833 80.9617 -0.000298272 84.9617L-0.000304436 155.462C102 135.462 208 159.962 213 161.962C218 163.962 253.5 170.962 257 136.962C260.5 102.962 229.5 96.9617 153.5 84.9617Z" fill="#BBE8FF"/>
<path d="M151 126.462C229 135.262 320.833 180.462 357 201.962C377.4 213.213 374.5 230.316 370.5 237.462C359.7 257.462 338.333 249.128 329 242.462C226 184.962 168.5 178.462 142 174.962C120.8 172.162 118.833 155.128 120.5 146.962C124.1 128.162 142.333 125.462 151 126.462Z" fill="#DCF3FF"/>
<path d="M925.298 78.5H772.944C776.103 68.0654 785.676 60.5 796.968 60.5C800.645 60.5 804.135 61.3008 807.28 62.739L808.793 63.4311L809.325 61.8542C814.303 47.0918 828.095 36.5 844.305 36.5C859.664 36.5 872.85 46.0068 878.429 59.5629L879.172 61.3676L880.725 60.1856C885.417 56.6138 891.244 54.5 897.56 54.5C911.547 54.5 923.171 64.8839 925.298 78.5Z" fill="white" stroke="#DCF3FF" stroke-width="3"/>
<path d="M336.298 78.5H183.944C187.103 68.0654 196.676 60.5 207.968 60.5C211.645 60.5 215.135 61.3008 218.28 62.739L219.793 63.4311L220.325 61.8542C225.303 47.0918 239.095 36.5 255.305 36.5C270.664 36.5 283.85 46.0068 289.429 59.5629L290.172 61.3676L291.725 60.1856C296.417 56.6138 302.244 54.5 308.56 54.5C322.547 54.5 334.171 64.8839 336.298 78.5Z" fill="white" stroke="#DCF3FF" stroke-width="3"/>
<path d="M1046 62H1233C1231.22 43.808 1216.1 29.6 1197.71 29.6C1189.73 29.6 1182.37 32.2753 1176.44 36.7904C1169.49 19.8831 1153.05 8 1133.87 8C1113.63 8 1096.44 21.2382 1090.24 39.6498C1086.24 37.8189 1081.8 36.8 1077.13 36.8C1061.94 36.8 1049.23 47.5713 1046 62Z" fill="white"/>
<path d="M-41 229H95C93.7059 215.861 82.709 205.6 69.3344 205.6C63.5309 205.6 58.175 207.532 53.8653 210.793C48.8105 198.582 36.8531 190 22.9071 190C8.18744 190 -4.31695 199.561 -8.82779 212.858C-11.7363 211.536 -14.9637 210.8 -18.3616 210.8C-29.4091 210.8 -38.6542 218.579 -41 229Z" fill="white"/>
</g>
<defs>
<linearGradient id="paint0_linear_999_9060" x1="822.096" y1="10.1667" x2="1145.23" y2="92.818" gradientUnits="userSpaceOnUse">
<stop stop-color="#B7D7F5"/>
<stop offset="1" stop-color="#C8FCF3"/>
</linearGradient>
<linearGradient id="paint1_linear_999_9060" x1="378.177" y1="248.833" x2="55.0449" y2="166.182" gradientUnits="userSpaceOnUse">
<stop stop-color="#B7D7F5"/>
<stop offset="1" stop-color="#C8FCF3"/>
</linearGradient>
<clipPath id="clip0_999_9060">
<rect width="1200" height="250" fill="white"/>
</clipPath>
</defs>
</svg>
